<svg width="100" height="100" viewBox="0 0 100 100" fill="none" xmlns="http://www.w3.org/2000/svg">
<circle cx="50" cy="50" r="50" fill="#0665A3"/>
<path d="M33.683 75.6213V64.2083C33.683 62.8339 33.2011 61.5016 32.3609 60.4139C26.3024 52.571 23.6951 46.2878 25.6284 39.0203C29.3236 25.1301 46.3966 16.7722 59.8001 21.9626C66.7335 24.6475 69.8817 30.1359 72.7022 38.7256V47.7504L77.587 57.3164C78.2665 58.6471 77.2999 60.226 75.8058 60.226H72.7022V68.3945C72.7022 70.7514 71.5425 73.0022 69.4631 74.1117C63.8339 77.1152 59.7468 77.1239 54.9697 74.8392C51.8815 73.3623 49.8437 70.3916 48.8129 67.1273V67.1273" stroke="white" stroke-width="3" stroke-linecap="round"/>
<path d="M36.0756 44.3037C34.0478 42.8549 33.3406 40.5314 34.2175 38.1986C35.1962 35.595 40.1305 36.4609 40.1305 36.4609C40.1305 36.4609 39.2604 29.7044 45.4393 27.436C51.6181 25.1676 57.1185 32.2139 56.3222 34.6028C56.3222 34.6028 61.4068 32.978 63.489 35.3991C65.998 38.3166 62.1618 42.3005 62.1618 42.3005" stroke="white" stroke-width="2" stroke-linecap="round"/>
<rect x="35.6172" y="50.8828" width="6.55588" height="1.22923" rx="0.614613" transform="rotate(-55.4777 35.6172 50.8828)" fill="white"/>
<rect x="40.9248" y="42.9219" width="6.55588" height="1.22923" rx="0.614613" transform="rotate(-55.4777 40.9248 42.9219)" fill="white"/>
<rect x="43.0518" y="49.8203" width="6.55588" height="1.22923" rx="0.614613" transform="rotate(-55.4777 43.0518 49.8203)" fill="white"/>
<rect x="48.3594" y="42.3906" width="6.55588" height="1.22923" rx="0.614613" transform="rotate(-55.4777 48.3594 42.3906)" fill="white"/>
<rect x="53.667" y="45.0469" width="6.55588" height="1.22923" rx="0.614613" transform="rotate(-55.4777 53.667 45.0469)" fill="white"/>
<rect x="47.8252" y="54.0703" width="6.55588" height="1.22923" rx="0.614613" transform="rotate(-55.4777 47.8252 54.0703)" fill="white"/>
</svg>
