<svg width="177" height="269" viewBox="0 0 177 269" fill="none" xmlns="http://www.w3.org/2000/svg">
<mask id="mask0_1727_36505" style="mask-type:alpha" maskUnits="userSpaceOnUse" x="0" y="0" width="177" height="269">
<path d="M0 0H177V259C177 264.523 172.523 269 167 269H0V0Z" fill="#D9D9D9"/>
</mask>
<g mask="url(#mask0_1727_36505)">
<path fill-rule="evenodd" clip-rule="evenodd" d="M291.8 310.143C333.819 280.735 396.195 270.74 410.267 221.42C425.219 169.016 397.423 111.771 359.594 72.5445C324.545 36.2 271.344 34.4019 221.596 25.7748C166.553 16.2297 108.728 -7.46031 60.464 20.6713C7.63756 51.4625 6.09001 101.934 2.99991 163.001C0.0392344 221.51 1.49954 244.504 21 282.003C40.5004 319.502 130.592 384.096 181.917 381.242C227.199 378.724 254.644 336.149 291.8 310.143Z" fill="#FBE9DC"/>
<path d="M34.0738 52.0973C33.9315 54.1387 33.3074 56.173 33.6016 58.1978C33.8603 59.9804 34.8094 61.5803 35.8107 63.0757C37.9011 66.1996 40.3142 69.1074 42.9978 71.7374C46.0705 74.7473 49.689 77.7144 50.5693 81.923C50.8231 83.1408 51.3001 84.8142 52.5315 84.6481C53.4 84.5318 53.7867 83.4968 53.8864 82.6257C55.0063 72.948 43.3513 64.9628 45.138 55.3849C45.3373 54.3191 45.7027 53.2818 45.7739 52.1994C45.9234 49.9301 44.7275 47.7392 43.088 46.1606C41.4508 44.5845 39.3983 43.5187 37.3767 42.4766C36.3493 41.9449 35.2365 41.399 34.0881 41.5485C30.2323 42.0517 34.2494 49.5503 34.0691 52.0973H34.0738Z" fill="#000543"/>
<mask id="mask1_1727_36505" style="mask-type:alpha" maskUnits="userSpaceOnUse" x="1" y="7" width="414" height="375">
<path fill-rule="evenodd" clip-rule="evenodd" d="M291.8 310.143C333.819 280.735 396.195 270.74 410.267 221.42C425.219 169.016 397.423 111.771 359.594 72.5445C324.545 36.2 271.344 34.4019 221.596 25.7748C166.553 16.2297 108.728 -7.46031 60.464 20.6713C7.63756 51.4625 6.09001 101.934 2.99991 163.001C0.0392344 221.51 1.49954 244.504 21 282.003C40.5004 319.502 130.592 384.096 181.917 381.242C227.199 378.724 254.644 336.149 291.8 310.143Z" fill="#FBE9DC"/>
</mask>
<g mask="url(#mask1_1727_36505)">
<path d="M-44.6852 192.123C-13.9983 179.258 -5.10048 176.108 9.79333 163.221C11.1245 162.07 12.1471 160.607 12.7427 158.95C13.6277 156.487 30.657 114.462 32.1898 109.902L30.1967 155.456C26.7775 162.627 24.2316 167.966 24.0655 168.305C22.9645 169.95 20.5087 173.743 19.5549 174.351C17.2509 176.744 -10.0026 188.897 -38.611 197.189L-44.6852 192.126V192.123Z" fill="#FF9985"/>
<path d="M-38.6109 198.576C-38.4804 198.576 -38.3523 198.56 -38.2242 198.522C-10.9137 190.605 17.0612 178.514 20.44 175.425C21.363 174.739 22.7178 172.84 24.8343 169.653L25.2187 169.076C25.2543 169.024 25.2852 168.969 25.3113 168.914C25.4773 168.575 28.0257 163.232 31.4496 156.054C31.5303 155.885 31.5754 155.702 31.5825 155.515L33.5732 109.963C33.604 109.27 33.12 108.662 32.439 108.537C31.7581 108.406 31.0889 108.802 30.8683 109.46C29.9168 112.289 22.7344 130.199 17.4906 143.276C14.2945 151.247 11.7699 157.542 11.433 158.479C10.9276 159.887 10.0449 161.164 8.88227 162.168C-4.67806 173.902 -13.1773 177.453 -38.4092 187.99L-45.2238 190.84C-45.6722 191.028 -45.9902 191.436 -46.0614 191.916C-46.1326 192.398 -45.9499 192.879 -45.5773 193.19L-39.5007 198.253C-39.2468 198.465 -38.9312 198.576 -38.6109 198.576ZM22.8555 167.614L22.5209 168.117C21.688 169.37 19.4766 172.698 18.8004 173.185C18.7316 173.235 18.613 173.325 18.556 173.386C16.7029 175.312 -9.41647 187.209 -38.2858 195.647L-42.0348 192.523L-37.3344 190.558C-11.7963 179.893 -3.19273 176.299 10.7045 164.274C12.2255 162.956 13.3834 161.278 14.0501 159.422C14.3705 158.532 17.0137 151.942 20.0722 144.311C23.5981 135.516 27.6745 125.354 30.4269 118.368L28.8206 155.111C25.6245 161.815 23.2185 166.859 22.8555 167.611V167.614Z" fill="#FF9985"/>
</g>
<path d="M84.3621 336.107C73.0322 322.149 67.487 314.198 64.6753 302.564C61.1755 288.075 60.1576 271.691 61.5693 252.512L86.3955 262.652C81.0592 292.046 84.7417 298.443 101.206 324.713C113.417 344.194 125.544 364.841 133.54 382.447C136.261 388.443 132.323 392.903 131.222 394.047C131.06 394.213 129.603 396.983 125.878 391.168C111.611 368.883 93.948 347.914 84.3597 336.105L84.3621 336.107Z" fill="#FF9985"/>
<path d="M-1.62917 306.623C-0.15094 297.897 2.89094 293.273 4.33357 289.242C8.89877 276.5 18.1715 264.729 21.5029 251.505C24.8912 238.058 26.7799 229.37 28.7683 219.002C29.9641 209.462 27.2758 165.235 24.9173 145.633C23.6431 135.051 25.2874 118.781 29.5133 110.034C33.3501 102.087 40.4873 97.3893 49.8218 95.9484C56.055 94.9871 63.318 94.7568 77.2627 99.6823C82.4686 100.917 90.3627 107.088 90.5099 108.607C92.2301 126.415 77.1987 136.088 79.4006 158.569C79.448 159.061 80.466 161.121 80.5466 163.426C88.1751 191.111 90.6949 189.357 94.7215 212.628L94.674 212.529C99.8894 236.978 90.3295 257.012 85.5223 279.263C83.0499 290.705 89.2048 292.815 95.654 305.389C98.722 311.37 98.4918 317.701 91.8173 319.65C80.2145 323.042 65.6694 327.094 58.0291 327.528C26.1487 329.346 0.954781 319.431 -1.58408 314.995C-2.6447 313.141 -2.1844 309.872 -1.63155 306.623H-1.62917Z" fill="#AC89CD"/>
<path d="M72.0381 108.013C69.9121 114.026 61.2681 118.901 52.7333 118.901C44.1985 118.901 39.0045 114.028 41.1305 108.013C43.2565 102.001 51.9005 97.125 60.4353 97.125C68.9701 97.125 74.1641 101.998 72.0381 108.013Z" fill="#FF9985"/>
<path d="M76.4324 117.847C77.4456 113.93 80.5729 110.391 84.4001 108.829C85.0218 108.575 85.6719 108.447 86.3339 108.449C88.5928 108.449 89.466 108.407 90.4364 110.654C99.2892 131.187 104.607 143.585 107.81 151.152C111.988 161.025 112.567 162.679 112.683 163.401C112.712 163.576 112.74 163.745 112.778 163.935C116.829 189.103 117.109 220.125 116.283 236.789L109.046 236.782C108.555 207.849 104.523 188.674 101.555 174.55C100.504 169.546 99.5953 165.226 99.1112 161.599L99.097 161.497L99.078 161.397L99.0567 161.291L99.0258 161.184L98.9736 160.991L98.8953 160.806C98.3994 159.636 97.8371 158.421 97.232 157.17C93.3692 149.208 87.2617 139.609 78.6414 127.959C76.3019 124.799 75.5379 121.301 76.4324 117.844V117.847Z" fill="#FF9985"/>
<path d="M117.607 238.184L117.671 236.862C118.392 222.309 118.463 190.527 114.15 163.718C114.102 163.488 114.079 163.341 114.052 163.184C113.917 162.346 113.516 161.081 109.086 150.615C105.795 142.837 100.435 130.344 91.7081 110.108C90.396 107.065 88.6615 107.065 86.4643 107.062C85.482 107.062 84.6563 107.226 83.8709 107.547C79.6521 109.268 76.2021 113.175 75.0822 117.502C74.0809 121.378 74.9232 125.281 77.519 128.791C86.1013 140.389 92.14 149.872 95.9791 157.782C96.6197 159.104 97.1536 160.272 97.6139 161.352L97.7349 161.779C98.2237 165.47 99.1372 169.812 100.193 174.839C103.135 188.837 107.167 208.007 107.653 236.81L107.677 238.175L117.602 238.184H117.607ZM86.3291 109.842C88.5334 109.842 88.5713 109.842 89.1598 111.209C97.8844 131.441 103.242 143.929 106.531 151.7C110.377 160.787 111.212 163.001 111.312 163.628C111.343 163.825 111.376 164.013 111.419 164.224C115.557 189.962 115.614 220.424 114.956 235.402L110.408 235.397C109.812 207.089 105.833 188.151 102.912 174.267C101.866 169.294 100.964 165 100.487 161.418L100.459 161.224L99.0779 161.402L100.419 161.027L99.0257 161.188L100.364 160.818L100.172 160.269C99.6948 159.144 99.142 157.934 98.4776 156.569C94.5649 148.5 88.4385 138.875 79.7518 127.137C77.6709 124.327 76.9875 121.236 77.7705 118.2C78.6793 114.694 81.4839 111.523 84.9173 110.122C85.3681 109.937 85.8403 109.844 86.322 109.844L86.3291 109.842Z" fill="#FF9985"/>
<path d="M85.463 219.754C81.3226 229.28 79.1705 233.951 77.9414 236.209L84.5827 238.824C87.4087 234.635 90.918 229.308 94.6741 223.217L85.463 219.754Z" fill="#FF8D7F"/>
<path d="M70.8445 233.796C70.4981 233.896 70.1255 234.031 69.9642 234.361C69.6842 234.935 70.275 235.695 70.9086 235.88C71.5421 236.065 72.1851 235.894 72.8234 235.859C73.4616 235.823 74.2233 235.994 74.565 236.592C73.2433 238.168 71.4543 239.303 69.4588 239.83C68.7754 240.01 68.0589 240.124 67.4585 240.483C66.5094 241.045 65.9898 242.12 65.5129 243.144C65.1166 243.993 66.3386 246.063 67.2094 246.982C68.1822 248.007 70.2347 248.603 75.0941 248.226C78.4539 247.965 81.4649 245.014 83.5886 242.363C84.5187 241.202 85.4132 239.778 85.1024 238.204C84.6231 235.764 81.9087 233.062 79.5264 232.965C76.6221 232.846 73.5732 233.003 70.8445 233.796Z" fill="#FF8D7F"/>
<path d="M173.592 261.501C174.634 271.573 167.487 280.861 167.224 290.983C167.06 297.266 169.577 303.507 168.65 309.726C167.997 314.093 165.691 318.067 164.889 322.409C163.624 329.266 166.211 336.235 166.175 343.209C166.149 348.693 164.495 354.114 164.891 359.583C165.126 362.823 166.078 365.99 166.201 369.237C166.379 373.856 164.882 378.407 164.958 383.031C164.981 384.427 165.145 385.848 164.794 387.202C164.44 388.552 163.401 389.851 162.011 389.972C159.783 390.164 158.497 387.541 157.932 385.378C154.947 373.918 154.109 362.002 153.943 350.16C153.566 323.052 156.67 295.897 163.152 269.572C164.3 264.912 165.56 260.258 167.518 255.878C168.123 254.527 168.851 253.136 170.107 252.355C171.364 251.575 173.286 251.686 174.045 252.956C174.439 253.614 174.449 254.423 174.449 255.19C174.446 258.75 174.442 262.313 174.439 265.874L173.585 261.506L173.592 261.501Z" fill="#6D72A0"/>
<path d="M106.234 113.916L95.5284 172.181C94.3396 178.656 98.4231 184.932 104.825 186.466C111.179 187.987 117.616 184.315 119.536 178.07C125.458 158.805 136.867 121.205 135.713 121.136C134.802 121.082 125.515 114.54 118.017 109.159C113.535 105.942 107.231 108.489 106.234 113.918V113.916Z" fill="#FFD878"/>
<path d="M97.8465 168.32L74.1165 218.598C72.9111 221.154 73.9836 224.204 76.5225 225.443L87.3779 230.734C89.8669 231.947 92.8661 230.984 94.1782 228.546C102.903 212.357 111.478 193.835 118.926 179.972C122.134 174.003 121.389 166.865 115.59 163.359C109.267 159.535 101.178 161.906 97.8465 168.32Z" fill="#FFD878"/>
<path d="M136.933 213.445L173.322 215.42L177.996 215.947L177.382 220.403C177.322 220.725 177.23 221.241 177.17 221.563C168.911 258.038 158.162 329.869 164.825 386.135C165.233 389.575 162.509 392.62 158.874 392.794L145.276 393.444C141.928 393.603 139.021 391.251 138.675 388.08C130.897 317.179 129.867 245.194 132.316 217.236C132.513 214.988 134.563 213.312 136.931 213.44L136.933 213.445Z" fill="#6D72A0"/>
<path d="M174.256 227.334L173.056 225.361C173.269 223.446 173.613 220.642 174.306 217.544L174.937 214.724L206.64 208.766L217.799 206.535L217.92 211.762C218.084 218.95 216.468 228.798 214.601 240.206C201.69 318.926 214.904 304.347 249.108 372.672C250.704 375.859 249.596 379.759 246.543 381.597L235.331 388.343C232.171 390.244 228.056 389.288 226.082 386.173C183.425 318.824 160.101 311.646 174.259 227.331L174.256 227.334Z" fill="#6D72A0"/>
<path d="M128.932 213.013C132.302 202.421 135.218 191.127 132.788 178.72C128.08 154.679 111.533 136.009 106.628 119.567C103.043 107.546 114.269 98.0252 125.629 96.1547C125.655 96.1499 139.318 94.6569 153.83 95.3096C165.812 95.8509 177.913 99.2192 188.7 105.733C189.3 106.096 189.903 106.471 190.503 106.858C190.619 106.931 204.64 142.57 204.462 142.44C211.948 167.722 218.668 201.652 221.19 225.442C222.137 234.36 217.719 233.46 208.341 233.204C207.675 233.185 154.164 231.715 153.827 231.706C152.095 231.658 150.41 231.613 148.835 231.568C145.473 231.475 141.434 230.474 137.669 228.812C131.042 225.885 127.15 218.619 128.935 213.01L128.932 213.013Z" fill="#FFD878"/>
<path d="M68.2036 13.6225C66.7325 12.5923 65.0075 11.8351 63.8994 10.4393C62.9527 9.24299 62.5683 7.70245 61.7212 6.43488C60.8765 5.16732 59.199 4.16324 57.7848 4.84687C57.1133 5.16969 56.6459 5.81297 55.9768 6.13579C54.0928 7.04493 52.2444 5.10798 50.4601 4.09677C48.4599 2.96451 45.7953 3.02148 43.7974 4.2392C42.3595 5.1151 41.0379 6.59392 39.3746 6.4064C38.0648 6.25686 36.9781 5.05101 35.6684 5.26464C33.7464 5.57797 33.5447 8.38133 31.9431 9.48274C30.8137 10.2589 29.307 9.99546 27.945 10.1189C25.4038 10.3468 23.0548 12.165 22.2385 14.534C21.8019 15.8016 21.7521 17.2329 20.9264 18.3058C19.8586 19.6921 17.7516 20.1265 16.914 21.6504C15.1796 24.8241 19.0282 26.6376 20.5894 29.486C22.5565 33.0704 20.7461 38.594 24.2127 40.8443C25.0241 41.3736 26.0895 41.6656 26.5356 42.513C26.9912 43.3747 26.6115 44.4784 26.9674 45.3852C27.6365 47.0848 30.2561 47.0943 31.6845 48.1245C31.7936 48.2574 32.4461 48.9671 32.496 49.1001C39.6617 57.23 49.7981 60.7692 57.8181 56.9594C64.4642 53.8048 68.0613 46.3584 68.0138 37.8202C68.0968 37.7656 68.1823 37.7418 68.2653 37.6849C70.2418 36.3105 71.1909 34.2453 71.6394 31.95C72.4627 27.739 69.0056 25.4911 69.1836 21.8902C69.2548 20.511 70.4459 19.3906 70.6927 18.0305C71.0154 16.2668 69.6795 14.6527 68.2108 13.6249L68.2036 13.6225Z" fill="#000543"/>
<path d="M52.9704 73.8115C49.8835 71.4924 43.6835 69.216 41.3107 67.2553C39.7115 65.9308 38.0885 64.5232 36.8973 62.8497C36.2947 61.9976 35.5212 60.6137 35.1985 58.3231C35.2032 58.3515 36.5082 55.9565 35.4571 57.7106C37.9461 53.559 38.544 49.4952 37.8559 45.8302C38.3685 43.7461 39.2772 41.4151 41.7805 38.7162C47.3446 32.713 50.4363 33.4346 54.0809 32.0128C57.6614 30.6147 57.4929 30.9992 62.0984 30.3013C66.1274 29.6913 70.3509 30.9873 73.4758 33.5889C73.4758 33.5889 75.2649 35.279 75.8675 36.1217C76.5177 37.0284 77.0824 37.9922 77.6756 38.9393C78.6888 39.5161 82.414 41.9444 82.8862 44.743C83.8139 50.2406 82.191 52.581 82.191 52.581C79.4053 52.1561 76.8356 48.4342 74.4486 48.935C73.3785 49.2555 72.9111 49.424 72.2918 49.8133C68.9557 51.9069 66.2009 53.6112 65.1023 57.6988C64.2007 61.0505 65.4298 65.1309 62.9835 67.704C60.7982 70.0041 56.6838 69.8688 54.3063 72.0004C53.725 72.525 53.3074 73.1469 52.9657 73.8139L52.9704 73.8115Z" fill="#000543"/>
<path d="M46.7848 69.0344C48.3935 67.9639 49.8219 66.6156 50.9537 65.0394C52.9729 62.2242 54.0478 58.8179 55.9982 55.9529C58.3638 52.4801 64.5971 46.4793 75.1227 45.9571C76.1477 45.9073 77.69 45.8883 78.0293 44.6729C78.1313 44.305 78.0245 43.7638 77.8324 43.1728C77.4575 42.0239 76.7456 40.6756 76.5012 39.9825C76.4063 39.7119 76.3019 39.427 76.0836 39.2419C75.8867 39.0757 75.6281 39.0116 75.3766 38.9547C73.2055 38.4538 71.0344 37.9506 68.861 37.4497C65.8737 36.759 62.8745 36.0682 59.8207 35.8522C57.2819 35.6718 54.5698 35.8736 52.4818 37.3477C49.1077 39.7261 48.505 44.4285 46.6306 48.1362C46.2011 48.9884 45.6933 49.7907 45.1428 50.5669L43.7999 49.3207C43.4843 50.4719 43.2707 51.7466 43.1355 53.1186C42.2196 54.1963 41.2705 55.2526 40.3688 56.335L44.2839 66.0008C44.7608 68.0517 45.3564 70.226 46.1347 72.5784C46.9936 75.1657 48.1515 77.3187 49.5752 78.9494C49.5894 78.9637 49.5846 79.0277 49.5989 79.0135C49.6368 78.9732 49.8029 70.8384 49.8029 70.8384C48.5976 70.7269 47.5346 70.0598 46.7824 69.0368L46.7848 69.0344Z" fill="#000543"/>
<path d="M82.2622 54.4114L81.9989 67.3054C81.8185 76.1143 74.4416 83.1737 65.6054 82.991C64.9055 82.9767 64.2221 82.9031 63.5483 82.8011L63.1544 102.007C63.1212 103.664 62.044 105 60.7627 104.974L51.4401 104.782C50.1588 104.756 49.1385 103.376 49.1717 101.72L49.6392 78.9675L49.8052 70.8352C48.5999 70.7236 47.5369 70.0566 46.7847 69.0335C48.3935 67.963 49.8218 66.6147 50.9537 65.0386C52.9729 62.2233 54.0477 58.817 55.9981 55.952C58.3638 52.4792 64.5971 46.4785 75.1226 45.9562C76.1476 45.9064 77.6899 45.8874 78.0292 44.6721C78.1313 44.3041 78.0245 43.7629 77.8323 43.1719C80.6298 46.1129 82.3524 50.0604 82.2646 54.409L82.2622 54.4114ZM66.3054 58.5488L67.2878 57.5969L65.3018 57.5661C64.6564 57.5566 64.1225 58.3518 64.1059 59.344C64.0893 60.3362 64.5994 61.148 65.2448 61.1575C65.8902 61.167 66.4241 60.3718 66.4407 59.3796C66.4454 59.0758 66.3885 58.8004 66.3054 58.5488ZM68.1585 53.799C68.168 53.2269 67.7077 52.7546 67.1383 52.7451L63.2303 52.6834C62.6585 52.6739 62.1863 53.1344 62.1768 53.7064C62.1673 54.2761 62.6277 54.7509 63.1995 54.7604L67.1074 54.8221C67.6769 54.8316 68.1514 54.3711 68.1609 53.8014L68.1585 53.799ZM75.0301 72.1644L68.7755 71.5734C68.8989 72.6724 69.0033 73.7667 71.3855 74.1275C71.3855 74.1275 75.3694 74.7613 75.0277 72.1644H75.0301ZM75.908 65.3448L75.787 64.9958C75.6778 65.7839 75.2128 66.4841 74.4938 66.7049L72.7404 67.2437C72.1377 67.4289 71.5967 67.1037 71.2811 66.5791L71.2431 66.7761C71.0059 67.9606 71.9336 69.0098 72.9444 68.6988L74.6979 68.16C75.7466 67.8372 76.3185 66.5126 75.908 65.3448ZM80.3356 58.7672L81.3179 57.8153L79.3319 57.7845C78.6865 57.775 78.1526 58.5702 78.136 59.5624C78.1194 60.5546 78.6296 61.3664 79.2749 61.3759C79.9203 61.3854 80.4542 60.5902 80.4708 59.598C80.4755 59.2942 80.4186 59.0188 80.3356 58.7672ZM82.2171 54.0198C82.2266 53.4477 81.8707 52.9753 81.427 52.9682L78.3946 52.9207C77.9509 52.9136 77.5808 53.3741 77.5713 53.9462C77.5618 54.5182 77.9177 54.9906 78.3614 54.9977L81.3962 55.0452C81.8399 55.0523 82.2077 54.5918 82.2171 54.0198Z" fill="#FF9985"/>
<path d="M68.1585 53.7994C68.168 53.2273 67.7077 52.755 67.1382 52.7455L63.2303 52.6837C62.6585 52.6742 62.1863 53.1347 62.1768 53.7068C62.1673 54.2765 62.6276 54.7512 63.1995 54.7607L67.1074 54.8225C67.6769 54.832 68.1514 54.3714 68.1609 53.8018L68.1585 53.7994Z" fill="#000543"/>
<path d="M81.427 52.9694L78.3946 52.922C77.9509 52.9148 77.5807 53.3753 77.5712 53.9474C77.5618 54.5195 77.9177 54.9918 78.3614 54.999L81.3961 55.0464C81.8398 55.0536 82.2076 54.5931 82.2171 54.021C82.2266 53.4489 81.8707 52.9766 81.427 52.9694Z" fill="#000543"/>
<path d="M75.7871 64.9961C75.6779 65.7842 75.2129 66.4844 74.4939 66.7052L72.7404 67.244C72.1378 67.4292 71.5968 67.104 71.2812 66.5794L71.2432 66.7764C71.0059 67.9609 71.9337 69.01 72.9445 68.6991L74.698 68.1603C75.7467 67.8374 76.3186 66.5129 75.9081 65.345L75.7871 64.9961Z" fill="#FA694F"/>
<path d="M65.3018 57.5665C64.6565 57.557 64.1226 58.3522 64.106 59.3444C64.0894 60.3366 64.5995 61.1484 65.2449 61.1579C65.8903 61.1674 66.4241 60.3722 66.4408 59.38C66.4455 59.0762 66.3886 58.8008 66.3055 58.5492L67.2878 57.5973L65.3018 57.5665Z" fill="#000543"/>
<path d="M79.3319 57.7852C78.6865 57.7757 78.1526 58.5709 78.136 59.5632C78.1194 60.5554 78.6295 61.3672 79.2749 61.3767C79.9203 61.3862 80.4542 60.591 80.4708 59.5988C80.4755 59.2949 80.4186 59.0196 80.3355 58.768L81.3179 57.8161L79.3319 57.7852Z" fill="#000543"/>
<path d="M68.7756 71.5703C68.899 72.6693 69.0034 73.7636 71.3856 74.1244C71.3856 74.1244 75.3695 74.7582 75.0278 72.1614L68.7732 71.5703H68.7756Z" fill="white"/>
<path d="M153.267 54.9022L150.987 52.7587L152.434 41.1726C146.156 39.5158 140.853 36.8287 132.581 38.6897C130.009 39.2689 126.044 42.6823 124.485 44.8092C122.459 47.5745 121.254 50.9974 121.285 54.7147L121.389 67.9837C121.46 77.0513 128.714 84.4099 137.51 84.341C146.305 84.2722 153.443 76.7974 153.371 67.7321L153.272 54.8998L153.267 54.9022Z" fill="#FF9985"/>
<path d="M159.799 47.2081C161.221 49.0003 162.554 51.2054 162.068 53.4415C161.868 54.3577 161.372 55.2028 161.277 56.138C161.121 57.6738 162.065 59.0743 162.825 60.4178C163.584 61.7614 164.189 63.4681 163.399 64.795C162.644 66.0602 160.924 66.4352 160.044 67.6173C158.739 69.3691 159.557 72.4597 157.645 73.5089C156.852 73.9433 155.813 73.8317 155.096 74.3848C154.093 75.1562 154.226 76.8131 153.291 77.6653C152.567 78.3252 151.395 78.2682 150.555 77.7673C149.715 77.2665 149.146 76.4167 148.676 75.5598C147.781 73.9314 147.124 72.0277 147.584 70.226C148.125 68.1087 150.028 66.6773 151.331 64.9255C153.4 62.1388 153.874 58.075 151.988 55.1601C151.366 54.2011 150.531 53.3988 149.867 52.4706C149.203 51.5401 148.702 50.4031 148.899 49.2756C149.077 48.2573 149.789 47.4289 150.332 46.5482C150.873 45.6676 151.253 44.5211 150.738 43.6238C150.496 43.2013 150.083 42.8927 149.855 42.463C149.226 41.2738 150.242 40.2199 151.374 40.03C152.484 39.8425 153.035 40.3789 153.825 41.0578C155.993 42.9164 158.027 44.9744 159.804 47.2129L159.799 47.2081Z" fill="white"/>
<path d="M153.298 58.9259C155.626 58.9069 157.531 61.1667 157.552 63.9748C157.574 66.7805 155.704 69.0712 153.376 69.0901C151.049 69.1091 149.143 66.8494 149.12 64.0413C149.098 61.2355 150.968 58.9449 153.296 58.9259H153.298Z" fill="#FF9985"/>
<path d="M139.123 104.248H157.585C157.585 104.236 154.166 71.9205 154.166 71.9205C153.984 70.1972 152.465 68.9344 150.792 69.1101L138.618 70.399C136.945 70.577 135.723 72.1318 135.906 73.8527L139.121 104.248H139.123Z" fill="#FF9985"/>
<path d="M153.58 55.7343L154.09 68.2912C154.259 72.4334 153.243 76.9885 150.424 80.0269C149.027 81.5342 145.686 84.1263 143.923 85.1802C140.578 87.1789 132.389 86.2982 128.92 86.1202C127.765 86.0609 126.55 85.5576 125.439 84.7909C122.865 83.0083 121.458 79.9604 121.439 76.8295L121.384 68.2461C121.384 68.2461 132.479 69.7226 139.401 68.1393C145.05 66.8456 145.591 65.6778 147.311 60.1399L150.735 49.1211L153.58 55.7366V55.7343Z" fill="white"/>
<path d="M135.803 71.7852C135.694 72.832 135.087 74.1066 132.565 74.4912C132.565 74.4912 128.866 74.9303 129.176 72.4569L135.803 71.7852Z" fill="#FF9985"/>
<path d="M135.341 53.8166L138.966 53.8047C139.496 53.8047 139.93 54.2343 139.932 54.766C139.932 55.2954 139.5 55.7298 138.971 55.7321L135.346 55.7416C134.816 55.7416 134.382 55.312 134.38 54.7803C134.38 54.2509 134.809 53.8166 135.341 53.8142V53.8166Z" fill="white"/>
<path d="M121.052 53.8595L124.678 53.8477C125.207 53.8477 125.641 54.2773 125.643 54.809C125.643 55.3384 125.214 55.7727 124.682 55.7751L121.057 55.787C120.528 55.787 120.093 55.3573 120.091 54.8256C120.091 54.2963 120.523 53.8619 121.052 53.8595Z" fill="white"/>
<path d="M123.534 58.3013C123.536 59.246 124.037 60.0104 124.652 60.0104C125.266 60.0104 125.76 59.2413 125.757 58.2966C125.755 57.3518 125.254 56.5875 124.64 56.5898C124.025 56.5898 123.529 57.3589 123.534 58.3037V58.3013Z" fill="#000543"/>
<path d="M137.13 58.5209C137.132 59.4656 137.633 60.23 138.248 60.2276C138.862 60.2276 139.358 59.4585 139.356 58.5138C139.353 57.569 138.853 56.8047 138.238 56.8047C137.624 56.8047 137.128 57.5738 137.132 58.5185L137.13 58.5209Z" fill="#000543"/>
<path d="M126.69 52.3415L132.313 52.3249C132.591 52.3249 132.816 52.097 132.816 51.8193C132.816 51.5083 132.588 51.2828 132.311 51.2852L126.685 51.3018C126.407 51.3018 126.182 51.5297 126.182 51.8074C126.182 52.1183 126.41 52.3439 126.687 52.3439L126.69 52.3415Z" fill="#FA694F"/>
<path d="M125.174 49.8073L135.948 49.7764C136.226 49.7764 136.451 49.5486 136.451 49.2708C136.451 48.9599 136.224 48.7344 135.946 48.7344L125.171 48.7652C124.894 48.7652 124.668 48.9931 124.668 49.2708C124.668 49.5818 124.896 49.8073 125.174 49.8049V49.8073Z" fill="#FA694F"/>
<path d="M128.026 64.7732L128.151 64.4219C128.31 65.1957 128.875 65.8604 129.713 66.0384L131.756 66.4728C132.458 66.6223 133.068 66.2686 133.407 65.7322L133.462 65.9244C133.787 67.0828 132.764 68.1723 131.587 67.9231L129.544 67.4887C128.322 67.2276 127.608 65.9506 128.028 64.7732H128.026Z" fill="#FA694F"/>
<path d="M148.636 110.709C140.815 110.709 134.475 107.795 134.475 104.2C134.475 100.605 140.815 97.6914 148.636 97.6914C156.456 97.6914 162.796 100.605 162.796 104.2C162.796 107.795 156.456 110.709 148.636 110.709Z" fill="#FF9985"/>
<path d="M83.8021 412.572C84.7821 412.572 85.6552 411.876 85.8474 410.879L118.454 240.364H172.743C176 240.364 178.743 242.806 179.123 246.041L198.357 410.606C198.489 411.748 199.526 412.565 200.668 412.437C201.811 412.301 202.63 411.266 202.495 410.125L183.261 245.56C182.637 240.219 178.115 236.195 172.743 236.195H116.731C115.732 236.195 114.873 236.907 114.684 237.888L81.7544 410.096C81.5385 411.228 82.2788 412.32 83.4106 412.536C83.5435 412.56 83.674 412.572 83.8045 412.572H83.8021Z" fill="#000543"/>
<path d="M30.8778 412.629C31.8577 412.629 32.7309 411.935 32.9231 410.936L64.6564 245.26C65.1902 242.476 67.6342 240.453 70.4696 240.453H122.476C123.627 240.453 124.559 239.521 124.559 238.369C124.559 237.218 123.627 236.285 122.476 236.285H70.4696C65.6387 236.285 61.4721 239.729 60.5634 244.477L28.8301 410.153C28.6141 411.283 29.3545 412.377 30.4839 412.593C30.6168 412.617 30.7473 412.629 30.8778 412.629Z" fill="#000543"/>
<path d="M168.569 122.152L176.535 176.774C177.484 183.289 183.366 187.923 189.919 187.32C196.425 186.722 201.344 181.177 201.159 174.644C200.786 161.513 199.168 135.53 198.086 119.026C197.545 110.794 190.406 104.584 182.179 105.185C173.58 105.814 167.321 113.614 168.567 122.15L168.569 122.152Z" fill="#FFD878"/>
<path d="M155.196 214.766C149.497 223.449 146.583 227.686 144.988 229.701L151.089 233.409C154.584 229.763 158.95 225.108 163.686 219.746L155.198 214.766H155.196Z" fill="#FF8D7F"/>
<path d="M137.476 235.87C137.272 236.166 137.068 236.508 137.151 236.864C137.296 237.486 138.233 237.702 138.843 237.446C139.453 237.19 139.84 236.651 140.312 236.219C140.784 235.787 141.484 235.438 142.127 235.687C142.099 237.743 141.429 239.755 140.215 241.424C139.799 241.996 139.315 242.537 139.076 243.195C138.696 244.23 138.971 245.393 139.249 246.487C139.479 247.394 139.771 248.391 140.606 248.942C141.13 249.286 141.783 249.39 142.412 249.462C144.732 249.723 147.271 249.583 148.968 248.206C150.147 247.249 150.75 245.827 151.212 244.425C152.268 241.222 152.795 237.849 152.764 234.453C152.752 232.964 152.543 231.296 151.31 230.273C149.397 228.684 145.586 228.307 143.679 229.738C141.353 231.483 139.087 233.532 137.476 235.872V235.87Z" fill="#FF8D7F"/>
<path d="M178.622 166.2L147.008 217.978C145.401 220.61 146.035 223.934 148.429 225.434L158.665 231.843C161.012 233.312 164.201 232.503 165.9 230.006C177.18 213.411 188.538 194.915 198.174 180.706C202.324 174.584 201.176 167.745 195.808 163.598C189.957 159.077 182.965 159.62 178.622 166.202V166.2Z" fill="#FFD878"/>
<path d="M161.356 232.978C163.332 232.978 165.326 231.957 166.588 230.101C172.316 221.676 178.445 212.889 184.372 204.391C187.705 199.61 190.968 194.932 194.048 190.479C198.267 184.376 200.488 177.221 200.466 169.789L199.678 135.679C199.669 135.297 199.356 134.993 198.967 135C198.582 135.01 198.278 135.328 198.288 135.712L199.076 169.808C199.095 176.941 196.962 183.823 192.904 189.688C189.824 194.141 186.562 198.817 183.23 203.596C177.301 212.096 171.167 220.888 165.437 229.32C163.947 231.515 161.183 232.235 159.145 230.96L148.908 224.551C146.847 223.26 146.31 220.342 147.713 218.047L170.624 180.526C173.198 176.308 174.342 171.477 173.929 166.554L171.542 138.012C171.511 137.63 171.165 137.338 170.792 137.379C170.41 137.409 170.126 137.747 170.159 138.129L172.546 166.67C172.933 171.299 171.858 175.838 169.438 179.802L146.526 217.323C144.73 220.266 145.468 224.038 148.173 225.731L158.409 232.14C159.318 232.709 160.336 232.982 161.356 232.982V232.978Z" fill="#F9B067"/>
<path d="M34.3324 52.3727C34.7713 52.3727 35.2055 52.1638 35.4737 51.7745C48.2296 33.3948 61.1327 32.2483 72.0735 33.5538C72.8351 33.6464 73.5256 33.1005 73.6182 32.3385C73.7083 31.5765 73.165 30.8858 72.4033 30.7932C60.6486 29.3951 46.787 30.5986 33.1934 50.1888C32.7545 50.8202 32.9111 51.6867 33.5422 52.1234C33.7843 52.292 34.0595 52.3727 34.3324 52.3727Z" fill="white"/>
<path d="M112.512 245.059C113.234 244.866 113.666 244.121 113.476 243.399L111.751 236.888C111.559 236.167 110.814 235.732 110.092 235.924C109.371 236.117 108.939 236.862 109.129 237.584L110.854 244.095C111.046 244.816 111.791 245.248 112.512 245.059Z" fill="#FF9985"/>
<path d="M120.919 231.356C121.631 232.282 122.265 233.293 122.34 234.24C122.4 234.974 122.122 235.603 121.814 236.189C121.016 237.701 119.987 239.078 118.743 240.284C117.604 241.392 115.948 242.399 113.853 241.739C111.827 241.103 110.244 239.512 109.321 237.796C107.575 234.542 106.979 233.364 107.257 230.34C107.603 226.554 109.874 224.634 114.487 227.136C116.859 228.422 119.367 229.343 120.917 231.356H120.919Z" fill="#FF9985"/>
<path d="M114.876 239.604L123.93 244.349C124.545 244.669 124.782 245.436 124.462 246.048C124.141 246.663 123.375 246.9 122.763 246.58L113.708 241.835C113.094 241.514 112.856 240.748 113.177 240.135C113.497 239.521 114.264 239.283 114.876 239.604Z" fill="#FF9985"/>
<path d="M117.358 237.053L126.412 241.798C127.024 242.118 127.264 242.885 126.944 243.497C126.623 244.112 125.857 244.35 125.245 244.029L116.19 239.284C115.576 238.964 115.338 238.197 115.659 237.585C115.979 236.97 116.745 236.732 117.358 237.053Z" fill="#FF9985"/>
<path d="M117.858 233.037L126.913 237.782C127.527 238.103 127.765 238.869 127.444 239.482C127.124 240.097 126.358 240.334 125.745 240.014L116.691 235.269C116.076 234.948 115.839 234.181 116.159 233.569C116.48 232.954 117.246 232.717 117.858 233.037Z" fill="#FF9985"/>
<path d="M116.954 229.244L126.009 233.989C126.623 234.31 126.861 235.076 126.54 235.689C126.22 236.304 125.454 236.541 124.841 236.221L115.787 231.476C115.172 231.155 114.935 230.388 115.255 229.776C115.576 229.161 116.342 228.924 116.954 229.244Z" fill="#FF9985"/>
</g>
</svg>
