<svg width="80" height="80" viewBox="0 0 80 80" fill="none" xmlns="http://www.w3.org/2000/svg">
<g clip-path="url(#clip0_1342_35505)">
<path fill-rule="evenodd" clip-rule="evenodd" d="M12.4994 56.9975C8.36658 50.495 2.62295 41.6512 5.49226 31.7958C8.53211 21.3546 13.9981 10.2445 24.4557 7.26146C34.4532 4.40965 39.8005 15.807 48.4996 21.4999C56.6482 26.8325 69.6464 28.5654 71.5907 38.1077C73.6678 48.3012 68.805 58.5798 61.5255 66.0116C54.2772 73.4116 44.2433 77.5585 33.9338 76.5526C23.6078 75.5451 16.6322 63.5 12.4994 56.9975Z" fill="#D1E3F4"/>
<circle cx="48.5" cy="35.5" r="21.25" stroke="#2554C3" stroke-width="2.5"/>
<path d="M58.4995 24.7422L50.1662 33.0755" stroke="#2554C3" stroke-width="2.5" stroke-linecap="round"/>
<circle cx="48.5001" cy="35.5011" r="2.84091" stroke="#2554C3" stroke-width="2.5"/>
<ellipse cx="48.5021" cy="20.1594" rx="1.025" ry="1.02273" fill="#2554C3"/>
<ellipse cx="33.5021" cy="36.1594" rx="1.025" ry="1.02273" fill="#2554C3"/>
<circle cx="38.2727" cy="25.2727" r="1.02273" fill="#2554C3"/>
<circle cx="38.2727" cy="46.7532" r="1.02273" fill="#2554C3"/>
<circle cx="58.7273" cy="46.7532" r="1.02273" fill="#2554C3"/>
<ellipse cx="63.5021" cy="36.1594" rx="1.025" ry="1.02273" fill="#2554C3"/>
<ellipse cx="49.5021" cy="51.1594" rx="1.025" ry="1.02273" fill="#2554C3"/>
<path d="M59.9142 17.3183L61.2181 15.5744C61.8796 14.6898 63.1329 14.5089 64.0175 15.1703L65.1521 16.0187C66.0367 16.6801 66.2176 17.9335 65.5562 18.8181L64.2523 20.562" stroke="#2554C3" stroke-width="2.5"/>
<path d="M36.9984 17.3068L35.703 15.5744C35.0416 14.6898 33.7882 14.5089 32.9036 15.1703L31.769 16.0187C30.8844 16.6801 30.7035 17.9335 31.365 18.8181L32.6603 20.5505" stroke="#2554C3" stroke-width="2.5"/>
<mask id="path-14-inside-1_1342_35505" fill="white">
<rect x="41.3408" y="3.79688" width="14.3182" height="8.18182" rx="2"/>
</mask>
<rect x="41.3408" y="3.79688" width="14.3182" height="8.18182" rx="2" stroke="#2554C3" stroke-width="5" mask="url(#path-14-inside-1_1342_35505)"/>
<line x1="44.6365" y1="10.957" x2="44.6365" y2="14.0252" stroke="#2554C3" stroke-width="2.5"/>
<line x1="51.7954" y1="10.957" x2="51.7954" y2="14.0252" stroke="#2554C3" stroke-width="2.5"/>
</g>
<defs>
<clipPath id="clip0_1342_35505">
<rect width="80" height="80" fill="white"/>
</clipPath>
</defs>
</svg>
