<svg width="238" height="240" viewBox="0 0 238 240" fill="none" xmlns="http://www.w3.org/2000/svg">
<mask id="mask0_1088_28471" style="mask-type:alpha" maskUnits="userSpaceOnUse" x="0" y="0" width="238" height="240">
<path d="M0 0H228C233.523 0 238 4.47715 238 10V230C238 235.523 233.523 240 228 240H0V0Z" fill="#D9D9D9"/>
</mask>
<g mask="url(#mask0_1088_28471)">
<path fill-rule="evenodd" clip-rule="evenodd" d="M5.9993 191.002C-0.38148 241.892 53.8662 241.476 80.9992 284.999C109.829 331.244 119.056 427.067 173.523 425.331C223.989 423.722 261.013 385.477 300.786 354.372C344.791 319.958 401.153 292.969 412.67 238.306C425.277 178.474 403.987 112.916 360.775 69.6556C319.373 28.2078 256.617 20.2139 198.127 23.5261C146.806 26.4324 96.1187 46.4976 63.8027 86.473C35.291 121.742 11.6417 146.002 5.9993 191.002Z" fill="#FFF4D7"/>
<path d="M182.754 119.642C182.78 119.704 182.754 119.668 182.74 119.633C182.745 119.633 182.749 119.637 182.754 119.642Z" fill="white"/>
<path d="M146.721 233.469C147.058 233.606 147.434 233.722 147.785 233.837C147.115 233.606 146.721 233.469 146.721 233.469Z" fill="#FFB288"/>
<path d="M145.921 233.402C146.254 233.535 146.622 233.646 146.967 233.762C146.307 233.535 145.921 233.402 145.921 233.402Z" fill="#FFB288"/>
<path d="M235.941 183.603C233.676 167.96 228.392 131.561 227.763 125.676L210.187 135.265C214.509 161.121 220.223 181.909 227.763 191.072C227.984 191.347 228.343 190.149 230.325 190.211C231.903 190.26 233.374 189.622 234.469 188.411C235.657 187.098 236.194 185.346 235.941 183.599V183.603Z" fill="#FF9985"/>
<path d="M147.22 219.121C147.588 219.267 148 219.396 148.386 219.52C147.65 219.267 147.22 219.121 147.22 219.121Z" fill="#FFB288"/>
<path d="M146.346 219.047C146.71 219.189 147.113 219.313 147.494 219.433C146.772 219.189 146.346 219.047 146.346 219.047Z" fill="#FFB288"/>
<path d="M243.717 222.26C261.004 225.954 281.971 238.328 280.845 257.79C279.302 275.495 271.208 295.129 265.317 312.062C259.816 327.865 252.263 344.35 243.242 359.944C242.134 361.86 240.086 363.026 237.897 363.026H219.674C217.666 363.026 216.42 360.827 217.351 359.021C242.453 310.373 245.995 278.125 247.6 264.793C248.003 261.453 245.703 258.473 242.418 258.056C233.965 256.982 218.18 254.987 201.362 252.339C183.477 249.523 179.811 231.25 178.889 213.319C178.884 213.217 218.176 216.8 243.721 222.264L243.717 222.26Z" fill="#66D3D8"/>
<path d="M221.596 229.623C238.884 233.233 257.368 241.85 256.242 260.859C254.699 278.152 246.605 297.32 240.71 313.859C235.209 329.293 227.656 345.388 218.635 360.619C217.527 362.49 215.479 363.63 213.289 363.63H195.066C193.058 363.63 191.813 361.484 192.744 359.718C217.846 312.205 221.388 280.715 222.992 267.694C223.396 264.434 221.095 261.524 217.811 261.116C209.357 260.07 193.573 258.118 176.755 255.533C158.869 252.778 147.198 238.981 146.271 221.475C146.267 221.373 196.051 224.292 221.596 229.627V229.623Z" fill="#66D3D8"/>
<path d="M219.515 361.705L218.243 360.747C227.122 345.578 234.755 329.217 240.318 313.433C241.351 310.501 242.45 307.481 243.571 304.411C248.735 290.272 254.587 274.244 255.921 259.869L255.845 259.679L255.854 259.546C256.825 239.911 237.503 231.662 221.12 228.198C197.72 223.253 154.833 220.477 150.019 220.175L150.104 218.445C154.926 218.747 197.906 221.528 221.399 226.495C238.336 230.074 258.301 238.701 257.388 259.466C257.441 259.665 257.459 259.861 257.437 260.056C256.08 274.678 250.18 290.827 244.981 305.077C243.864 308.141 242.765 311.153 241.732 314.076C236.133 329.971 228.447 346.439 219.511 361.705H219.515Z" fill="#55AEB7"/>
<path d="M219.693 362.574L217.472 360.902L217.738 360.449C226.599 345.308 234.214 328.982 239.764 313.237C240.797 310.306 241.9 307.285 243.022 304.212C248.164 290.13 253.975 274.213 255.327 259.958L255.252 259.772L255.26 259.634C256.222 240.306 237.157 232.199 221 228.779C197.613 223.834 154.789 221.066 149.984 220.769L149.404 220.734L149.545 217.824L150.144 217.864C154.975 218.166 198.021 220.955 221.528 225.923C238.651 229.542 258.864 238.292 257.987 259.412C258.04 259.648 258.053 259.883 258.031 260.113C256.67 274.807 250.757 290.995 245.544 305.276C244.423 308.354 243.323 311.361 242.295 314.275C236.683 330.202 228.984 346.705 220.03 362.006L219.697 362.578L219.693 362.574ZM219.019 360.591L219.342 360.835C228.119 345.76 235.664 329.536 241.182 313.876C242.211 310.958 243.31 307.946 244.423 304.89C249.622 290.649 255.504 274.541 256.856 259.998C256.865 259.874 256.856 259.745 256.821 259.616L256.799 259.528V259.439C257.699 239.086 237.982 230.602 221.284 227.072C198.629 222.282 157.697 219.518 150.667 219.071L150.64 219.62C157.613 220.064 198.531 222.814 221.244 227.617C237.853 231.13 257.441 239.525 256.449 259.572C256.449 259.585 256.524 259.785 256.524 259.785L256.511 259.923C255.172 274.363 249.312 290.418 244.139 304.584C243.004 307.684 241.909 310.7 240.877 313.632C235.362 329.288 227.809 345.516 219.023 360.596L219.019 360.591Z" fill="#55AEB7"/>
<path d="M160.519 130.538C160.648 116.935 173.826 104.189 187.12 102.282C202.608 100.064 210.937 99.9045 219.895 107.426C229.665 115.623 230.848 128.507 224.385 139.453C199.975 180.801 221.606 186.749 216.438 212.583C215.795 215.799 213.042 218.158 209.735 218.327C190.865 219.285 177.182 227.25 151.782 223.942C149.615 223.658 147.208 223.76 145.594 222.261C143.981 220.762 143.285 214.131 143.081 211.727C153.458 175.461 160.351 148.043 160.515 130.529L160.519 130.538Z" fill="#55AEB7"/>
<path d="M202.093 119.66C197.771 116.848 193.419 114.085 189.026 111.375C186.198 109.627 185.081 106.563 186.574 104.669C188.649 102.039 191.663 100.123 195.728 100.056C200.245 99.9855 208.893 102.101 208.756 106.669C208.592 112.213 208.773 109.596 207.829 118.4C207.59 120.64 204.598 121.292 202.089 119.66H202.093Z" fill="#FF9985"/>
<path d="M236.874 70.2412C236.319 71.5895 235.468 72.8668 235.322 74.3082C235.198 75.5412 235.61 76.7564 235.584 77.9938C235.561 79.2268 234.852 80.6505 233.589 80.8101C232.986 80.8855 232.388 80.6549 231.789 80.7303C230.1 80.9432 229.688 83.0765 228.908 84.549C228.035 86.2033 226.186 87.3386 224.289 87.3874C222.924 87.4229 221.372 87.0016 220.317 87.862C219.489 88.5406 219.271 89.8401 218.283 90.2747C216.833 90.9089 215.468 89.0905 213.89 89.0462C212.777 89.0151 211.864 89.8578 210.876 90.3767C209.036 91.3436 206.638 91.1396 205.038 89.8844C204.187 89.2147 203.522 88.2612 202.489 87.893C201.151 87.4185 199.519 88.0527 198.278 87.383C195.703 85.9859 197.542 83.0587 197.365 80.4287C197.143 77.1201 193.486 74.1619 194.874 71.0972C195.197 70.3787 195.796 69.709 195.734 68.9373C195.667 68.1523 194.927 67.5668 194.772 66.7907C194.488 65.3404 196.275 64.1784 196.798 62.8479C196.815 62.7104 196.953 61.9386 196.926 61.8278C198.269 53.1349 203.655 46.2604 210.805 45.3158C216.731 44.5352 222.45 48.0168 226.155 53.8534C226.235 53.8534 226.306 53.8312 226.386 53.8357C228.336 53.9022 229.892 54.8912 231.204 56.2528C233.611 58.7542 232.228 61.81 233.926 64.1828C234.577 65.092 235.885 65.3271 236.647 66.1476C237.64 67.2076 237.432 68.8929 236.878 70.2412H236.874Z" fill="#000543"/>
<path d="M204.791 78.9875C208.142 76.7788 214.712 74.8273 217.3 72.9424C219.047 71.6695 220.82 70.3124 222.167 68.6536C222.85 67.8065 223.745 66.4183 224.233 64.0588C224.224 64.0854 223.041 61.5131 224.007 63.4069C221.715 58.9274 221.374 54.6652 222.336 50.8998C221.95 48.7 221.166 46.2163 218.763 43.2448C213.417 36.6364 210.173 37.1819 206.498 35.4655C202.89 33.7757 203.036 34.1882 198.32 33.1593C194.193 32.2589 189.738 33.3278 186.329 35.8248C186.329 35.8248 184.365 37.4613 183.683 38.2996C182.947 39.1999 182.295 40.1623 181.617 41.107C180.527 41.6392 176.511 43.9145 175.832 46.7929C174.498 52.4477 176.014 54.9845 176.014 54.9845C178.922 54.7273 181.839 51.0284 184.272 51.7026C185.358 52.1062 185.828 52.3146 186.444 52.7581C189.751 55.1531 192.486 57.109 193.342 61.4288C194.046 64.9725 192.495 69.1326 194.849 71.9667C196.954 74.4991 201.219 74.6322 203.528 77.005C204.095 77.586 204.481 78.2646 204.791 78.9786V78.9875Z" fill="#000543"/>
<path d="M209.757 74.1623C208.241 73.0003 206.916 71.5722 205.905 69.9401C204.097 67.0218 203.259 63.5756 201.521 60.613C199.416 57.0205 193.653 50.6783 183.303 49.4985C182.297 49.3832 180.772 49.2679 180.519 48.0438C180.444 47.6713 180.586 47.1435 180.812 46.5669C181.255 45.4493 182.044 44.1586 182.332 43.4889C182.443 43.2273 182.567 42.9523 182.793 42.7793C182.997 42.6241 183.259 42.5797 183.507 42.5398C185.683 42.1806 187.86 41.8169 190.032 41.4576C193.024 40.9609 196.029 40.4642 199.057 40.442C201.574 40.4243 204.238 40.7968 206.202 42.389C209.376 44.9614 209.664 49.6626 211.273 53.4547C211.641 54.324 212.098 55.1489 212.59 55.9561L213.99 54.8074C214.225 55.965 214.354 57.2379 214.398 58.6039C215.236 59.7348 216.1 60.8436 216.92 61.979L212.426 71.315C211.823 73.3196 211.091 75.4352 210.169 77.7193C209.154 80.2296 207.869 82.2919 206.357 83.8176C206.295 83.8353 206.663 75.7634 206.663 75.7634C207.86 75.7279 208.955 75.1336 209.762 74.1667L209.757 74.1623Z" fill="#000543"/>
<path d="M175.701 57.4275L175.121 70.2273C174.726 78.9734 181.544 86.4377 190.276 86.8147C190.968 86.8458 191.646 86.8147 192.32 86.757L191.455 105.828C191.38 107.474 192.355 108.866 193.623 108.919L202.834 109.319C204.102 109.372 205.197 108.072 205.272 106.427L206.296 83.8343L206.659 75.7624C207.856 75.7269 208.951 75.1326 209.758 74.1657C208.242 73.0037 206.916 71.5756 205.906 69.9435C204.097 67.0252 203.26 63.579 201.522 60.6164C199.416 57.0239 193.654 50.6817 183.304 49.5019C182.297 49.3866 180.772 49.2713 180.52 48.0472C180.444 47.6746 180.586 47.1469 180.812 46.5703C177.86 49.3112 175.901 53.1166 175.706 57.4319L175.701 57.4275ZM191.18 62.5368L190.272 61.53L192.231 61.6232C192.869 61.6542 193.344 62.4791 193.295 63.4593C193.246 64.4439 192.688 65.2156 192.054 65.189C191.415 65.1579 190.941 64.3374 190.99 63.3528C191.003 63.0513 191.078 62.7807 191.176 62.5368H191.18ZM189.66 57.7114C189.687 57.1437 190.174 56.7046 190.737 56.7312L194.598 56.9175C195.161 56.9441 195.6 57.432 195.573 57.9952C195.547 58.5629 195.059 59.002 194.496 58.9754L190.635 58.7891C190.072 58.7625 189.633 58.2746 189.66 57.7114ZM181.681 75.4874L187.891 75.2966C187.696 76.3788 187.523 77.4566 185.148 77.665C185.148 77.665 181.176 78.042 181.681 75.4874ZM181.26 68.6706L181.402 68.3335C181.46 69.123 181.872 69.8459 182.563 70.1076L184.257 70.7551C184.842 70.9768 185.396 70.6886 185.742 70.1874L185.768 70.387C185.923 71.58 184.939 72.5602 183.964 72.1876L182.266 71.5401C181.251 71.1542 180.777 69.806 181.256 68.675L181.26 68.6706ZM177.319 61.8715L176.411 60.8647L178.37 60.9579C179.008 60.9889 179.483 61.8094 179.434 62.7984C179.385 63.783 178.827 64.5548 178.193 64.5237C177.554 64.4927 177.08 63.6722 177.129 62.6831C177.142 62.3815 177.217 62.111 177.315 61.8671L177.319 61.8715ZM175.772 57.0461C175.799 56.4784 176.185 56.0349 176.619 56.0526L179.616 56.199C180.054 56.2211 180.387 56.7002 180.36 57.2679C180.334 57.8355 179.952 58.2835 179.514 58.2613L176.517 58.1194C176.078 58.0972 175.746 57.6182 175.772 57.0505V57.0461Z" fill="#FF9985"/>
<path d="M189.658 57.7079C189.685 57.1402 190.173 56.7011 190.735 56.7277L194.596 56.914C195.159 56.9406 195.598 57.4285 195.572 57.9917C195.545 58.5594 195.057 58.9985 194.494 58.9719L190.634 58.7856C190.071 58.759 189.632 58.2711 189.658 57.7079Z" fill="#000543"/>
<path d="M176.618 56.0469L179.615 56.1932C180.053 56.2154 180.386 56.6944 180.359 57.2621C180.333 57.8298 179.952 58.2777 179.513 58.2556L176.516 58.1136C176.077 58.0915 175.745 57.6125 175.772 57.0448C175.798 56.4771 176.184 56.0336 176.618 56.0513V56.0469Z" fill="#000543"/>
<path d="M181.402 68.332C181.46 69.1215 181.872 69.8444 182.563 70.1061L184.257 70.7536C184.842 70.9754 185.396 70.6871 185.742 70.1859L185.768 70.3855C185.923 71.5786 184.939 72.5587 183.964 72.1862L182.266 71.5386C181.251 71.1528 180.777 69.8045 181.256 68.6735L181.398 68.3365L181.402 68.332Z" fill="#FA694F"/>
<path d="M192.23 61.6244C192.869 61.6554 193.343 62.4804 193.294 63.4605C193.245 64.4451 192.687 65.2168 192.053 65.1902C191.415 65.1592 190.94 64.3387 190.989 63.3541C191.002 63.0525 191.078 62.782 191.175 62.538L190.267 61.5312L192.226 61.6244H192.23Z" fill="#000543"/>
<path d="M178.375 60.9609C179.013 60.9919 179.487 61.8124 179.439 62.8014C179.39 63.786 178.831 64.5578 178.198 64.5267C177.559 64.4957 177.085 63.6751 177.134 62.6861C177.147 62.3845 177.222 62.114 177.32 61.8701L176.411 60.8633L178.37 60.9564L178.375 60.9609Z" fill="#000543"/>
<path d="M185.147 77.6613C185.147 77.6613 181.176 78.0383 181.681 75.4837L187.891 75.293C187.696 76.3751 187.523 77.4529 185.147 77.6613Z" fill="white"/>
<path d="M35.2695 233.863C35.6552 234.014 36.0896 234.147 36.493 234.276C35.7217 234.019 35.2695 233.863 35.2695 233.863Z" fill="#FFB288"/>
<path d="M34.3516 233.785C34.7328 233.932 35.1583 234.06 35.5572 234.184C34.7993 233.936 34.3516 233.785 34.3516 233.785Z" fill="#FFB288"/>
<path d="M78.9444 112.709C78.9709 112.779 78.9444 112.739 78.9268 112.695C78.9312 112.695 78.9356 112.704 78.9444 112.709Z" fill="white"/>
<path d="M38.5845 234.238C38.9613 234.389 39.3823 234.522 39.7768 234.651C39.0233 234.389 38.5845 234.238 38.5845 234.238Z" fill="#FFB288"/>
<path d="M37.6936 234.156C38.0659 234.303 38.4781 234.431 38.8682 234.555C38.128 234.303 37.6936 234.156 37.6936 234.156Z" fill="#FFB288"/>
<path d="M154.853 240.857L160.992 234.674C160.483 233.854 160.177 232.648 159.521 231.747C157.845 229.454 139.246 196.075 134.343 187.183L126.187 174.064C123.013 169.234 116.094 168.17 111.989 172.237C111.967 172.259 111.945 172.281 111.923 172.303C111.089 173.141 110.748 173.718 110.735 173.745L110.247 174.574C107.033 186.314 147.455 233.801 154.858 240.853L154.853 240.857Z" fill="#FF9985"/>
<path d="M127.536 132.2L101.494 131.77C102.802 139.229 108.848 177.651 122.824 194.584C123.241 195.09 125.01 196.598 127.798 196.669C132.594 196.789 136.198 192.247 135.484 187.497C133.33 173.158 127.576 134.661 127.536 132.195V132.2Z" fill="#FF9985"/>
<path d="M139.383 169.401C136.847 155.297 132.14 132.655 130.269 119.887C128.226 120.836 122.011 125.732 119.972 126.699C118.057 127.608 116.12 128.54 114.276 129.635C114.356 129.719 111.457 131.888 111.182 132.137C106.044 136.705 100.885 135.396 95.1621 133.52C96.2038 140.288 100.867 158.317 105.583 173.667C106.656 177.162 109.675 179.388 112.942 179.131L133.935 177.477C137.543 177.193 140.11 173.401 139.391 169.396L139.383 169.401Z" fill="#91B4DE"/>
<path d="M174.773 246.497C173.958 225.239 153.984 218.587 136.107 217.212C109.985 215.207 60.2993 215.309 34.1376 212.808C23.282 211.77 41.3851 222.596 41.5092 231.129C44.5544 232.22 47.511 233.52 50.5031 234.881C52.2008 235.653 53.8808 236.46 55.5608 237.272C56.2124 237.587 62.4447 240.434 58.6193 238.78C63.3933 240.846 67.2453 243.064 69.8961 247.801C70.2108 248.364 70.4945 248.967 70.756 249.593C92.4186 250.586 124.329 250.772 138.612 250.87C138.168 253.668 140.464 257.257 139.804 261.652C139.175 265.821 137.805 270.141 139.152 274.145C139.689 275.729 140.633 277.175 140.983 278.807C141.413 280.794 140.925 282.856 140.371 284.812C137.508 294.88 132.694 304.659 132.681 315.108C132.676 319.814 133.656 324.515 133.23 329.199C132.162 341.018 122.321 351.88 125.136 363.425C125.336 364.241 125.943 365.19 126.674 365.261C126.648 365.332 142.02 365.332 142.02 365.332C144.312 365.332 146.351 363.917 147.176 361.762C154.56 342.486 164.139 321.331 167.588 301.998C170.704 284.546 175.452 264.233 174.769 246.492L174.773 246.497Z" fill="#000543"/>
<path d="M102.529 226.908C76.8369 221.604 50.3915 220.548 24.7041 214.934C24.8858 215.865 25.0676 216.796 25.1207 217.763C25.1252 217.861 25.1296 217.963 25.1385 218.06C26.0029 234.231 37.6077 247.838 53.654 251.896C56.123 253.227 58.7604 254.264 61.3757 255.005C66.5619 256.473 72.1737 256.868 76.8059 259.582C78.3795 260.505 79.8068 261.68 81.4868 262.407C84.4966 263.711 87.9364 263.436 91.2033 263.813C94.4701 264.19 98.0739 265.636 99.0934 268.71C99.9932 271.424 98.5438 274.298 97.1608 276.808C94.6341 281.399 92.1519 286.14 91.3717 291.302C90.3965 297.746 92.1297 304.528 90.1172 310.737C87.2803 319.487 77.6038 325.187 75.9504 334.225C75.5381 336.47 75.6667 338.776 75.4096 341.042C74.6738 347.482 70.9858 352.964 69.2703 359.16C68.4148 362.255 70.7065 365.333 73.898 365.333H87.2715C89.8424 365.333 92.205 363.994 93.557 361.79C103.641 345.322 115.663 327.604 121.753 310.701C127.502 294.744 135.331 276.325 137.285 259.587C139.626 239.531 120.41 230.599 102.529 226.904V226.908Z" fill="#000543"/>
<path d="M93.8611 362.392C93.7193 362.392 93.5686 362.352 93.44 362.273C93.0632 362.038 92.948 361.541 93.1785 361.164C94.7831 358.552 96.4365 355.908 98.0987 353.243C106.8 339.316 115.798 324.92 120.79 311.056C121.836 308.164 122.944 305.188 124.074 302.159C129.048 288.836 134.691 273.73 136.277 260.123C138.609 240.147 119.008 231.809 102.155 228.327C91.0774 226.039 79.9291 224.553 69.4547 223.236C69.0159 223.182 68.7056 222.779 68.7632 222.335C68.8209 221.896 69.1755 221.564 69.6586 221.635C80.1641 222.961 91.3477 224.446 102.478 226.748C127.23 231.858 139.801 243.779 137.869 260.313C136.26 274.115 130.581 289.315 125.573 302.727C124.442 305.751 123.334 308.718 122.297 311.606C117.239 325.634 108.196 340.106 99.4552 354.099C97.7929 356.76 96.1439 359.399 94.5393 362.007C94.3842 362.25 94.1226 362.388 93.8567 362.388L93.8611 362.392Z" fill="#2D398C"/>
<path d="M37.1962 153.098C37.0145 156.451 37.0676 159.901 35.8752 163.028C34.6518 166.239 32.2183 168.82 30.8132 171.951C27.7635 178.733 29.931 186.978 27.2493 193.923C25.9771 197.223 23.6898 199.999 22.0719 203.135C17.4486 212.094 19.8112 225.04 28.6367 229.581C40.7778 189.945 52.919 150.312 65.0645 110.676C65.592 108.959 66.0441 106.866 64.8606 105.54C63.3579 103.859 60.5432 104.91 59.0139 106.573C46.9481 119.714 38.198 134.581 37.1962 153.098Z" fill="#F9C29D"/>
<path d="M105.504 210.936C106.444 198.66 108.004 190.255 112.853 178.626C118.461 165.17 122.158 153.377 128 140.262C133.173 128.642 131.417 114.033 123.106 104.409C102.246 87.2892 101.377 94.483 87.2634 93.7911C86.4655 93.7512 85.6765 93.7334 84.8875 93.7157C69.5637 93.3919 50.0111 112.929 44.8869 126.159C31.8194 159.879 48.668 153.178 24.3458 222.419C23.4105 225.084 26.4514 227.258 28.353 229.386C28.4106 229.413 28.4549 229.431 28.5081 229.457H89.4576C93.8991 229.457 98.1456 228.269 101.927 226.149C105.331 224.237 104.493 220.991 105.508 217.097C105.996 215.225 105.331 213.265 105.508 210.936H105.504Z" fill="#F9C29D"/>
<path d="M104.005 93.1055H94.0976C89.2039 93.1055 85.2012 97.1104 85.2012 102.007C85.2012 106.903 89.2039 110.908 94.0976 110.908H104.005C108.898 110.908 112.901 106.903 112.901 102.007C112.901 97.1104 108.898 93.1055 104.005 93.1055Z" fill="#FF9985"/>
<path d="M54.9902 124.562C53.2969 129.148 46.9183 145.625 43.3677 162.718C42.0955 168.843 41.1912 175.039 40.9873 180.804C40.8588 184.419 41.0051 187.865 41.5193 191.01C41.6257 191.671 42.4102 193.915 44.8394 195.414C49.0149 197.991 54.5292 195.831 56.3422 191.271C57.0204 189.559 57.8537 187.466 58.7757 185.155C60.6906 180.343 63.0222 174.498 65.4026 168.55C71.0986 154.327 77.0029 139.708 77.7653 138.351L54.9902 124.562Z" fill="#FF9985"/>
<path d="M74.442 161.997C81.2772 149.344 88.4404 134.357 90.4307 128.609C84.5175 129.328 79.2382 129.638 74.8188 124.817C74.5794 124.556 72.0306 122.196 72.1192 122.134C70.4526 120.879 68.6751 119.752 66.9153 118.652C66.7069 118.524 66.4232 118.395 66.0819 118.271C60.2618 116.164 53.8521 119.433 51.7865 125.27C48.6127 134.251 44.9247 144.248 41.6756 152.847C40.3945 156.236 42.3803 159.97 45.9043 160.8L66.3878 165.629C69.5882 166.383 72.8861 164.893 74.4464 161.997H74.442Z" fill="#F9C29D"/>
<path d="M44.5503 161.335C42.9235 160.812 41.5582 159.677 40.7515 158.16C39.865 156.492 39.7409 154.523 40.4102 152.753C44.4085 142.193 48.4999 130.99 51.6338 122.018C51.7401 121.712 52.0726 121.614 52.3785 121.659C52.6843 121.765 52.8439 122.098 52.7375 122.404C49.5992 131.385 45.5034 142.597 41.5051 153.166C40.9554 154.616 41.0574 156.235 41.7888 157.605C42.5202 158.98 43.8012 159.983 45.3261 160.333L65.8095 165.158C68.7351 165.85 71.7759 164.493 73.1988 161.859C77.76 153.419 80.9382 145.968 83.4915 139.985C84.7725 136.978 85.8807 134.383 86.9445 132.165C87.082 131.873 87.4321 131.744 87.7247 131.89C88.0173 132.032 88.1369 132.378 87.9995 132.671C86.949 134.862 85.8452 137.448 84.5686 140.441C82.0065 146.451 78.815 153.924 74.2271 162.413C72.5516 165.513 68.9789 167.11 65.5391 166.298L45.0557 161.473C44.8872 161.433 44.7188 161.384 44.5548 161.331L44.5503 161.335Z" fill="#FBE9DC"/>
<path d="M67.3341 167.102C66.6914 167.102 66.0442 167.031 65.4015 166.876L44.918 162.05C44.7318 162.006 44.5545 161.953 44.3772 161.899C42.582 161.323 41.1104 160.094 40.2327 158.436C39.2664 156.617 39.1289 154.471 39.8603 152.546C43.8807 141.915 47.9677 130.72 51.075 121.823C51.2656 121.287 51.8197 120.985 52.4624 121.074C53.185 121.313 53.5086 121.988 53.3002 122.6C50.1663 131.572 46.0705 142.788 42.0589 153.379C41.5714 154.67 41.6644 156.112 42.3116 157.331C42.9676 158.564 44.1157 159.451 45.4588 159.757L65.9467 164.583C68.6107 165.217 71.3856 163.975 72.6844 161.576C77.2234 153.171 80.3972 145.747 82.9416 139.777C84.1739 136.881 85.3308 134.171 86.4212 131.905C86.5542 131.625 86.798 131.403 87.095 131.297C87.3964 131.195 87.7156 131.217 87.9949 131.355C88.2697 131.488 88.4824 131.727 88.5888 132.024C88.6908 132.321 88.6731 132.641 88.5356 132.92C87.5161 135.04 86.4523 137.533 85.22 140.424L85.1136 140.668C82.556 146.669 79.3689 154.142 74.75 162.689C73.2606 165.443 70.3838 167.093 67.3386 167.093L67.3341 167.102Z" fill="#FBE9DC"/>
<path d="M101.63 48.1504L104.431 46.1813L104.657 33.4125C111.71 32.592 117.867 30.4986 126.537 33.7984C129.232 34.8229 133 39.1338 134.356 41.6796C136.121 44.9882 136.896 48.8822 136.294 52.9005L134.13 67.2526C132.65 77.0587 123.66 83.9065 114.148 82.4695C104.635 81.0325 98.0616 71.8341 99.5421 62.028L101.634 48.146L101.63 48.1504Z" fill="#FF9985"/>
<path d="M95.7435 38.8075C93.9261 40.5284 92.1442 42.7104 92.3215 45.2074C92.3969 46.2319 92.8047 47.2254 92.7604 48.2499C92.6894 49.9397 91.4527 51.3057 90.4243 52.6451C89.3915 53.9846 88.4739 55.7364 89.1255 57.2932C89.7461 58.7834 91.5502 59.4531 92.3215 60.8679C93.4607 62.9657 92.0999 66.1856 94.0103 67.6181C94.7994 68.2124 95.943 68.2524 96.6345 68.9576C97.6008 69.951 97.2019 71.7206 98.084 72.7895C98.7666 73.6145 100.043 73.7342 101.032 73.3217C102.02 72.9093 102.765 72.0799 103.408 71.2239C104.627 69.5962 105.633 67.6403 105.416 65.6179C105.159 63.2407 103.319 61.3957 102.18 59.2978C100.371 55.9582 100.486 51.4876 102.978 48.6225C103.798 47.6778 104.826 46.9416 105.69 46.0368C106.555 45.132 107.273 43.9789 107.233 42.7282C107.198 41.5972 106.555 40.5904 106.103 39.5526C105.651 38.5148 105.42 37.2153 106.116 36.3238C106.444 35.9025 106.94 35.6364 107.251 35.2018C108.115 34.0131 107.18 32.7136 105.983 32.3322C104.808 31.9597 104.13 32.452 103.168 33.064C100.531 34.7405 98.0131 36.652 95.7435 38.8031V38.8075Z" fill="#F2F2F2"/>
<path d="M100.974 52.5047C98.456 52.1233 96.0446 54.2787 95.5836 57.3123C95.127 60.346 96.7937 63.1179 99.3159 63.4949C101.834 63.8763 104.245 61.7209 104.706 58.6873C105.163 55.6492 103.492 52.8817 100.974 52.5047Z" fill="#FF9985"/>
<path d="M109.313 103.778L89.3213 100.921L98.0227 66.4428C98.4881 64.6066 100.328 63.4712 102.11 63.9236L115.088 67.2056C116.87 67.658 117.952 69.5296 117.491 71.3658L109.308 103.782L109.313 103.778Z" fill="#FF9985"/>
<path d="M101.161 49.0088L98.6652 62.5271C97.8407 66.9844 98.2396 72.0759 100.819 75.8015C102.1 77.6509 105.314 80.9728 107.061 82.3876C110.372 85.0665 119.375 85.3858 123.156 85.7273C124.415 85.8426 125.811 85.4878 127.132 84.827C130.195 83.2969 132.19 80.2144 132.695 76.826L134.082 67.5388C134.082 67.5388 121.839 67.4235 114.592 64.6338C108.674 62.3586 108.271 61.0103 107.265 54.7479L105.261 42.2852L101.156 49.0088H101.161Z" fill="#F2F2F2"/>
<path d="M117.925 69.1328C117.88 70.2815 118.341 71.7584 121.014 72.5656C121.014 72.5656 124.95 73.6123 124.995 70.8891L117.925 69.1373V69.1328Z" fill="#FF9985"/>
<path d="M121.206 49.7513L117.283 49.1792C116.711 49.0949 116.17 49.4941 116.09 50.0706C116.006 50.6428 116.409 51.1839 116.981 51.2637L120.904 51.8358C121.476 51.9201 122.017 51.5165 122.096 50.9444C122.181 50.3722 121.782 49.8312 121.206 49.7513Z" fill="white"/>
<path d="M136.667 52.0053L132.745 51.4331C132.173 51.3488 131.632 51.748 131.552 52.3246C131.468 52.8967 131.871 53.4378 132.443 53.5176L136.366 54.0897C136.938 54.174 137.479 53.7704 137.558 53.1983C137.643 52.6262 137.239 52.0851 136.667 52.0053Z" fill="white"/>
<path d="M133.293 56.4338C133.142 57.4584 132.486 58.2079 131.821 58.1103C131.156 58.0127 130.739 57.1036 130.89 56.0835C131.041 55.059 131.697 54.3094 132.362 54.407C133.027 54.5046 133.443 55.4138 133.293 56.4338Z" fill="#000543"/>
<path d="M118.54 54.5706C118.389 55.5951 117.733 56.3446 117.069 56.2471C116.404 56.1495 115.987 55.2403 116.133 54.2202C116.284 53.1957 116.94 52.4461 117.605 52.5437C118.27 52.6413 118.686 53.5505 118.54 54.5706Z" fill="#000543"/>
<path d="M130.796 49.4921L124.71 48.6051C124.409 48.5607 124.2 48.2813 124.245 47.9798C124.293 47.6427 124.577 47.4342 124.874 47.4786L130.96 48.3656C131.262 48.41 131.47 48.6894 131.426 48.9909C131.377 49.328 131.098 49.5365 130.796 49.4921Z" fill="#FA694F"/>
<path d="M132.833 46.984L121.171 45.2809C120.869 45.2365 120.661 44.9571 120.705 44.6555C120.754 44.3185 121.033 44.11 121.335 44.1544L132.997 45.8574C133.298 45.9018 133.507 46.1812 133.462 46.4828C133.414 46.8199 133.134 47.0283 132.833 46.984Z" fill="#FA694F"/>
<path d="M127.429 62.7507L127.349 62.3516C127.056 63.1632 126.343 63.7974 125.407 63.8595L123.129 64.0147C122.344 64.068 121.742 63.589 121.458 62.9592L121.369 63.1588C120.837 64.3651 121.777 65.7001 123.089 65.6114L125.368 65.4562C126.733 65.363 127.699 64.0901 127.429 62.7507Z" fill="#FA694F"/>
<path d="M132.925 120.387L98.8198 214.895C97.4546 218.683 99.4405 222.861 103.239 224.187L163 241.5L199.5 137L141.635 116.236C138.085 114.998 134.202 116.848 132.925 120.383V120.387Z" fill="white"/>
<path d="M201.135 137.074L162.256 244.848L220.551 228.579C223.884 227.648 226.561 225.16 227.74 221.905L262.484 125.609C263.437 122.974 261.012 120.362 258.317 121.116L201.14 137.074H201.135Z" fill="white"/>
<path d="M112.974 206.686C101.853 202.136 77.8719 191.908 70.3496 188.662L55.5489 183.176C49.9637 181.264 43.7092 184.737 42.9379 190.596C42.9379 190.627 42.929 190.658 42.9246 190.693C42.7783 191.891 42.8626 192.574 42.867 192.6L42.9956 193.576C47.3307 204.061 90.412 214.062 107.447 216.847L112.979 206.686H112.974Z" fill="#FF9985"/>
<path d="M118.477 201.447C119.04 202.068 118.987 202.964 118.353 203.439L112.653 207.714C112.023 208.189 111.044 208.069 110.481 207.444C109.918 206.823 109.971 205.927 110.605 205.452L116.305 201.177C116.935 200.702 117.914 200.822 118.477 201.447Z" fill="#FF9985"/>
<path d="M117.958 218.127C119.164 217.856 120.343 217.462 120.968 216.761C121.451 216.215 121.558 215.537 121.611 214.867C121.744 213.146 121.58 211.381 121.119 209.611C120.698 207.988 119.736 206.112 117.386 205.269C115.117 204.458 112.71 204.693 110.848 205.456C107.315 206.906 106.074 207.456 104.572 210.042C102.692 213.279 103.698 216.286 109.474 217.298C112.444 217.816 115.334 218.721 117.954 218.127H117.958Z" fill="#FF9985"/>
<path d="M117.097 207.633L128.338 209.753C129.1 209.895 129.77 209.443 129.827 208.746C129.885 208.05 129.309 207.363 128.546 207.216L117.305 205.096C116.542 204.954 115.873 205.407 115.815 206.103C115.758 206.799 116.334 207.487 117.097 207.633Z" fill="#FF9985"/>
<path d="M117.94 211.278L129.181 213.398C129.944 213.54 130.613 213.087 130.671 212.391C130.728 211.695 130.152 211.007 129.389 210.861L118.148 208.741C117.386 208.599 116.716 209.051 116.659 209.748C116.601 210.444 117.177 211.131 117.94 211.278Z" fill="#FF9985"/>
<path d="M116.071 214.797L127.312 216.917C128.075 217.059 128.744 216.607 128.802 215.911C128.859 215.214 128.283 214.527 127.521 214.38L116.279 212.26C115.517 212.119 114.848 212.571 114.79 213.267C114.732 213.963 115.309 214.651 116.071 214.797Z" fill="#FF9985"/>
<path d="M113.016 217.227L124.258 219.347C125.02 219.489 125.69 219.037 125.747 218.34C125.805 217.644 125.229 216.956 124.466 216.81L113.225 214.69C112.462 214.548 111.793 215.001 111.735 215.697C111.678 216.393 112.254 217.081 113.016 217.227Z" fill="#FF9985"/>
</g>
</svg>
