<svg width="131" height="182" viewBox="0 0 131 182" fill="none" xmlns="http://www.w3.org/2000/svg">
<mask id="mask0_1727_36228" style="mask-type:alpha" maskUnits="userSpaceOnUse" x="0" y="0" width="131" height="182">
<path d="M0 0H131V172C131 177.523 126.523 182 121 182H0V0Z" fill="#D9D9D9"/>
</mask>
<g mask="url(#mask0_1727_36228)">
<path fill-rule="evenodd" clip-rule="evenodd" d="M85.1141 38.4288C57.7503 56.6359 17.6373 62.0982 7.87735 93.4833C-2.4929 126.831 14.4518 163.926 38.0953 189.628C60.0016 213.441 94.0584 215.396 125.801 221.674C160.92 228.62 197.61 244.67 228.956 227.375C263.264 208.445 286.163 170.671 289.064 131.594C291.844 94.154 269.452 60.3574 243.36 33.3632C220.465 9.67747 189.511 -6.51732 156.586 -5.46337C127.537 -4.53349 109.311 22.3287 85.1141 38.4288Z" fill="#D7E1FC"/>
<path d="M119.417 211.67C120.117 213.718 120.816 215.764 121.516 217.812C122.444 220.526 123.371 223.247 124.523 225.872C126.129 229.535 128.167 233.026 129.335 236.852C130.201 239.689 130.568 242.655 131.359 245.513C132.573 249.91 134.753 253.96 136.498 258.171C138.244 262.383 138.945 267.842 138.328 272.363C138.248 272.945 138.159 273.08 137.58 273.003C137.186 272.95 137.373 272.231 137.217 271.863C129.157 252.871 121.924 233.526 115.542 213.896C114.143 209.591 112.776 205.236 112.292 200.733C112.194 199.808 112.134 198.849 112.429 197.967C112.723 197.084 114.136 163.633 115.054 163.525C117.602 163.22 116.425 200.892 116.72 202.411C117.336 205.574 118.381 208.632 119.42 211.67H119.417Z" fill="#4DB4E8"/>
<path d="M84.7499 216.198C84.8749 218.717 85.447 221.193 85.7571 223.695C86.4855 229.57 85.7619 235.529 86.0408 241.442C86.5263 251.68 90.0046 261.896 88.2354 271.987C87.8748 270.549 87.6921 269.071 87.5095 267.6C84.7812 245.5 82.0505 223.327 82.1106 201.056C82.113 200.121 84.0721 165.43 84.685 164.728C87.3797 161.651 85.5744 203.534 85.5504 204.453C85.4446 208.378 84.5552 212.258 84.7499 216.195V216.198Z" fill="#4DB4E8"/>
<path d="M14.4612 136.671L19.598 132.582L22.6653 136.902L17.5813 140.344L14.4612 136.671Z" fill="#FF9985"/>
<path d="M4.93276 136.913C4.92315 137.456 5.38709 137.91 5.96399 137.92L11.1802 138.014C11.7571 138.023 12.2378 137.588 12.2498 137.042C12.2595 136.499 11.7955 136.045 11.2186 136.035L6.00245 135.942C5.42554 135.932 4.94479 136.367 4.93517 136.913H4.93276Z" fill="#FF9985"/>
<path d="M13.3001 145.555C12.5021 145.869 11.6608 146.112 10.9757 145.978C10.4445 145.874 10.0575 145.552 9.7041 145.218C8.79547 144.357 8.03107 143.357 7.42772 142.247C6.87485 141.225 6.49506 139.865 7.38445 138.526C8.2426 137.23 9.68487 136.437 11.0815 136.134C13.7328 135.557 14.6847 135.375 16.764 136.175C19.3697 137.175 20.2687 139.151 17.574 141.886C16.1871 143.295 15.0308 144.872 13.2977 145.557L13.3001 145.555Z" fill="#FF9985"/>
<path d="M8.68962 139.663L3.51669 145.069C3.16574 145.434 2.57682 145.451 2.20904 145.102C1.84126 144.754 1.82445 144.17 2.1754 143.804L7.35071 138.398C7.70166 138.033 8.29059 138.016 8.65837 138.365C9.02614 138.713 9.04297 139.297 8.69202 139.663H8.68962Z" fill="#FF9985"/>
<path d="M9.99013 141.92L4.8148 147.326C4.46384 147.692 3.87492 147.709 3.50714 147.36C3.13937 147.012 3.12254 146.427 3.47349 146.062L8.64882 140.656C8.99977 140.291 9.58869 140.274 9.95647 140.622C10.3267 140.971 10.3411 141.555 9.99013 141.92Z" fill="#FF9985"/>
<path d="M12.7279 143.073L7.55259 148.479C7.20164 148.844 6.61271 148.861 6.24494 148.512C5.87716 148.164 5.86033 147.58 6.21128 147.214L11.3866 141.808C11.7376 141.443 12.3265 141.426 12.6943 141.775C13.062 142.123 13.0789 142.707 12.7279 143.073Z" fill="#FF9985"/>
<path d="M15.5863 143.194L10.411 148.6C10.06 148.965 9.47111 148.982 9.10333 148.634C8.73556 148.285 8.71873 147.701 9.06968 147.335L14.245 141.929C14.5959 141.564 15.1849 141.547 15.5526 141.896C15.9204 142.244 15.9373 142.828 15.5863 143.194Z" fill="#FF9985"/>
<path d="M84.6875 161.784C84.1803 189.194 83.75 243.791 88.8797 269.999C89.3147 272.22 87.596 274.278 85.3485 274.232L73.022 273.985C71.6182 273.956 70.4379 272.912 70.2216 271.516C64.5078 234.428 59.7964 185.67 58.0032 164.19L84.6899 161.781L84.6875 161.784Z" fill="#4DB4E8"/>
<path d="M115.244 195.6C115.321 202.82 117.66 210.089 122.876 223.654C127.614 235.976 133.323 256.139 138.082 270.364C139.003 273.116 137.388 275.323 134.505 275.268L124.174 275.071C121.878 275.027 119.823 273.621 118.941 271.489C113.819 259.107 110.018 250.716 104.057 237.86C96.1725 220.858 91.413 210.597 90.5789 198.837C90.5044 197.804 90.4635 196.768 90.4226 195.732L89.5044 158.574L115.857 165.129L115.246 195.6H115.244Z" fill="#4DB4E8"/>
<path d="M41.3474 113.431L49.1597 69.3622C49.3015 68.1098 50.9385 65.6339 52.1812 64.7902C52.7461 64.408 53.2894 64.2854 53.7244 64.4104L65.5967 66.8022L57.7508 114.928C57.508 117.43 55.9191 119.558 53.7004 120.346C53.3759 120.462 53.0514 120.546 52.7293 120.599C50.6668 120.94 48.6597 120.022 46.7463 117.853L41.3498 113.431H41.3474Z" fill="#2186C4"/>
<path d="M94.7278 89.5786L95.2927 53.9691C88.5597 53.7167 81.3772 53.9138 74.7692 55.0076C74.0169 55.1326 73.2717 55.2696 72.5362 55.4162C72.2261 55.4787 71.9136 55.5412 71.6011 55.6061C71.5218 55.6229 71.44 55.6397 71.3607 55.6566L68.3896 89.5762H94.7254L94.7278 89.5786Z" fill="#FF9985"/>
<path d="M49.7555 67.8938C53.6184 57.0528 73.7043 55.286 73.7043 55.286L77.6057 63.8987C78.6056 66.1078 81.5743 66.5092 83.1247 64.6439L92.0716 53.875C92.7615 53.8966 99.0137 53.9808 99.6915 54.0096C101.278 54.0745 102.843 54.1514 104.348 54.25C113.84 55.25 122.77 64.2401 118.282 77.1676L113.818 108.094C113.431 110.772 113.347 113.486 113.568 116.183L117.765 167.417C117.975 169.379 117.321 170.001 114.867 170.001L62.4907 170.073C59.1928 170.078 56.4981 167.958 56.438 165.312L55.7866 88.7417L49.7507 67.889L49.7555 67.8938Z" fill="#2186C4"/>
<path d="M108.367 91.1142H98.6604C98.2998 91.1142 98.0066 90.8209 98.0066 90.4555C98.0066 90.0901 98.2998 89.7969 98.6604 89.7969H108.367C108.727 89.7969 109.021 90.0901 109.021 90.4555C109.021 90.8209 108.727 91.1142 108.367 91.1142Z" fill="#4DB4E8"/>
<path d="M67.984 103.745V102.428C69.5368 102.428 69.7051 100.791 69.7051 100.086V81.789C69.7051 80.4981 68.6618 79.4477 67.3806 79.4477C66.0994 79.4477 65.0562 80.4981 65.0562 81.789V100.086C65.0562 102.247 65.7605 102.428 66.4191 102.428V103.745C64.6475 103.745 63.7485 102.514 63.7485 100.086V81.789C63.7485 79.7722 65.3759 78.1328 67.3782 78.1328C69.3806 78.1328 71.0079 79.7746 71.0079 81.789V100.086C71.0079 102.308 69.8205 103.745 67.9816 103.745H67.984Z" fill="#000543"/>
<path d="M66.6859 78.9561C66.4383 67.18 71.5872 57.1731 72.979 54.69C73.1617 54.3631 73.5775 54.2621 73.8948 54.4616C74.1905 54.6467 74.289 55.0265 74.1184 55.3294C72.8035 57.6707 67.7508 67.4348 67.9911 78.9272L66.6835 78.9561H66.6859Z" fill="#000543"/>
<path d="M67.3108 103.032C67.3108 103.44 67.6401 103.775 68.0463 103.775C68.4526 103.775 68.7819 103.443 68.7819 103.032C68.7819 102.621 68.4526 102.289 68.0463 102.289C67.6401 102.289 67.3108 102.621 67.3108 103.032Z" fill="#000543"/>
<path d="M65.6282 103.094C65.6282 103.503 65.9575 103.837 66.3637 103.837C66.77 103.837 67.0993 103.505 67.0993 103.094C67.0993 102.683 66.77 102.352 66.3637 102.352C65.9575 102.352 65.6282 102.683 65.6282 103.094Z" fill="#000543"/>
<path d="M17.7351 130.091L41.256 112.613L58.9261 113.527C59.6016 113.563 60.1641 114 60.3564 114.642C60.402 114.791 60.4237 114.94 60.4237 115.089C60.4285 115.582 60.1977 116.051 59.777 116.356L27.5593 139.848C25.9512 141.021 23.7012 140.747 22.4248 139.223L17.3673 133.18C16.5765 132.235 16.7447 130.827 17.7351 130.091Z" fill="#2186C4"/>
<path d="M62.2317 29.105C62.2413 29.254 62.2581 29.403 62.2726 29.5545C62.3086 29.5425 64.6067 29.2132 64.6067 29.2132C64.9432 29.1651 65.2581 29.4031 65.3061 29.7444C65.3542 30.0857 65.1211 30.403 64.7845 30.4511L62.5009 30.778L64.5273 38.6239C64.5538 38.797 64.5946 38.9629 64.6283 39.1311C65.1331 39.1023 71.5511 38.6936 75.39 37.035C78.6543 35.6264 78.849 34.8524 79.2745 31.2804L79.6903 27.7661C71.9959 27.6267 65.7388 24.5186 63.5346 23.2734C62.5899 24.9993 62.1043 27.0041 62.2293 29.1026L62.2317 29.105ZM65.6955 31.9751C65.7821 32.5832 65.5393 33.1193 65.1499 33.1746C64.7605 33.2299 64.3735 32.7828 64.2869 32.177C64.2004 31.5689 64.4432 31.0328 64.8326 30.9775C65.222 30.9222 65.609 31.3693 65.6955 31.9751ZM72.9309 31.1073C72.8444 30.4992 73.0871 29.9631 73.4766 29.9078C73.866 29.8526 74.253 30.2997 74.3395 30.9054C74.4261 31.5136 74.1833 32.0496 73.7939 32.1073C73.4045 32.1626 73.0175 31.7155 72.9309 31.1097V31.1073ZM70.8468 28.9487C70.7988 28.6074 71.0319 28.2901 71.3685 28.242L73.6665 27.9127C74.003 27.8646 74.3179 28.1026 74.366 28.4439C74.414 28.7853 74.1809 29.1026 73.8443 29.1507L71.5463 29.48C71.2098 29.528 70.8949 29.2901 70.8468 28.9487ZM67.6474 35.2827L67.7051 35.0639C67.8397 35.5255 68.2099 35.9028 68.7195 35.9702L69.9646 36.136C70.3925 36.1937 70.7387 35.9509 70.9166 35.6096L70.9574 35.725C71.2098 36.4125 70.6521 37.1216 69.9334 37.0254L68.6883 36.8596C67.9431 36.7586 67.4527 36.0182 67.645 35.2851L67.6474 35.2827Z" fill="#FF9985"/>
<path d="M83.3605 43.099C84.7234 40.9332 84.8316 38.0391 84.2691 35.5247L83.2763 29.9311C84.733 29.7509 86.1152 31.0176 86.382 32.7988C86.5431 33.8685 86.2546 34.8757 85.6921 35.5656L86.5479 39.9861L88.9012 52.1516C89.4516 55.0001 88.2449 57.9038 85.8339 59.5192L82.7018 61.6201C81.1033 62.6921 78.9255 62.0912 78.1034 60.3533C77.9784 60.0913 77.8943 59.8124 77.851 59.5264L76.2092 48.4546C77.7573 48.1349 79.2092 47.671 80.012 46.9619C80.9591 46.1254 82.685 44.1735 83.3605 43.099Z" fill="#FF9985"/>
<path d="M71.3685 28.2417L73.6665 27.9124C74.003 27.8643 74.3179 28.1023 74.366 28.4436C74.4141 28.785 74.1809 29.1023 73.8444 29.1504L71.5464 29.4797C71.2098 29.5277 70.8949 29.2898 70.8469 28.9484C70.7988 28.6071 71.032 28.2898 71.3685 28.2417Z" fill="#000543"/>
<path d="M64.6065 29.2132C64.943 29.1651 65.2579 29.4031 65.306 29.7444C65.354 30.0858 65.1209 30.4031 64.7844 30.4512L62.5008 30.7781C62.1498 30.8285 61.8349 30.5882 61.7845 30.2492C61.7364 29.9223 61.9551 29.6219 62.27 29.5546C62.3061 29.5425 64.6041 29.2132 64.6041 29.2132H64.6065Z" fill="#000543"/>
<path d="M65.15 33.1743C64.7606 33.2296 64.3736 32.7825 64.287 32.1768C64.2005 31.5686 64.4433 31.0326 64.8327 30.9773C65.2221 30.922 65.6091 31.3691 65.6956 31.9748C65.7822 32.583 65.5394 33.119 65.15 33.1743Z" fill="#000543"/>
<path d="M73.4762 29.907C73.8656 29.8517 74.2527 30.2988 74.3392 30.9045C74.4257 31.5127 74.1829 32.0487 73.7935 32.1064C73.4041 32.1617 73.0171 31.7146 72.9306 31.1089C72.844 30.5031 73.0868 29.9647 73.4762 29.9094V29.907Z" fill="#000543"/>
<path d="M67.705 35.0625C67.8396 35.524 68.2098 35.9014 68.7194 35.9687L69.9646 36.1346C70.3925 36.1923 70.7386 35.9495 70.9165 35.6082L70.9573 35.7235C71.2097 36.411 70.6521 37.1201 69.9333 37.024L68.6882 36.8581C67.943 36.7572 67.4526 36.0168 67.6449 35.2836L67.7027 35.0649L67.705 35.0625Z" fill="#FA694F"/>
<path d="M64.6306 39.1284C64.5945 39.1284 66.0632 45.7748 66.0632 45.7748C66.7363 47.6738 69.0968 49.4261 71.0679 49.1737C72.2337 49.0247 74.2937 48.8468 76.2071 48.4502C77.7552 48.1305 79.207 47.6666 80.0099 46.9575C80.957 46.1209 82.6829 44.1691 83.3584 43.0946C84.7213 40.9288 84.8294 38.0346 84.267 35.5203L83.2742 29.9267C84.7309 29.7464 86.1131 31.0132 86.3799 32.7944C86.5409 33.8641 86.2525 34.8713 85.69 35.5612L86.5457 39.9817C86.9544 39.6115 87.5842 39.5755 88.0265 39.2413C89.1442 38.3952 88.3462 36.4818 89.012 35.2391C89.4615 34.4001 90.5216 34.0083 90.8822 33.1262C91.2619 32.2031 90.7235 31.1599 90.1201 30.3642C89.8101 29.9556 89.4687 29.5397 89.2019 29.0974C89.5312 27.1744 90.5288 25.0447 89.6082 23.3644C89.2909 22.7875 88.7765 22.35 88.488 21.7587C88.2524 21.2731 88.1851 20.7203 88.0289 20.1987C87.0722 17.004 83.8848 16.4824 81.4618 15.1796C79.2527 13.9945 77.8225 11.4249 75.2721 11.0523C75.087 10.9441 74.8802 10.884 74.6639 10.896C74.4836 10.9057 74.3154 10.961 74.1519 11.0379C73.5005 11.1124 72.8515 11.3239 72.2265 11.6316C71.8611 11.4922 71.5246 11.2302 71.1352 11.1533C69.8732 10.9105 69.0968 12.6412 67.8516 12.9513C67.0103 13.1604 66.0872 12.6797 65.2748 12.9753C64.4214 13.2854 64.0633 14.2974 63.9094 15.2036C63.7556 16.1098 63.6642 17.1098 63.0224 17.7564C62.633 18.1506 62.0922 18.3502 61.6595 18.6963C60.6066 19.54 60.3927 21.0592 60.3759 22.4221C60.3518 24.124 60.5153 25.8403 60.811 27.5157C60.9191 28.1263 60.972 28.583 61.5465 28.9171C61.7556 29.0397 61.996 29.0998 62.2292 29.0998C62.1042 27.0013 62.5897 24.9966 63.5344 23.2707C65.7387 24.5134 71.9981 27.6239 79.6902 27.7633L79.2743 31.2776C78.8513 34.8497 78.6542 35.6237 75.3898 37.0323C71.5534 38.6885 65.1353 39.0971 64.6282 39.1284H64.6306ZM69.152 40.7726L73.2937 39.7509C73.3202 40.4336 73.051 41.3062 71.4861 41.7797C71.4861 41.7797 69.7482 42.1523 69.152 40.7726Z" fill="#000543"/>
<path d="M71.4859 41.7827C71.4859 41.7827 69.748 42.1553 69.1519 40.7755L73.2936 39.7539C73.32 40.4366 73.0508 41.3091 71.4859 41.7827Z" fill="white"/>
<path d="M126.578 191.969L134.45 169.39C135.133 167.433 134.094 165.285 132.133 164.59L96.0595 151.816C94.0932 151.119 91.9467 152.145 91.2616 154.105L83.3892 176.681C82.7066 178.637 83.745 180.786 85.7065 181.481L121.78 194.255C123.744 194.952 125.893 193.925 126.578 191.966V191.969Z" fill="#FBE9DC"/>
<path d="M129.833 134.194C130.936 132.007 132.729 127.31 133.443 124.964C134.215 122.432 134.621 119.743 135.65 117.305C136.77 114.651 138.253 110.882 139.282 108.192C140.585 104.786 140.32 100.919 139.188 97.4356C138.056 93.9501 136.107 90.7868 134.049 87.7484C133.345 86.7076 119.412 64.5111 118.16 64.5352C116.379 64.5712 128.633 87.9143 128.797 89.6883C129.061 92.5752 130.398 95.2482 131.167 98.0462C133.095 105.077 131.369 112.531 129.234 119.471C128.169 122.932 127.001 126.367 126.129 129.887C125.638 131.858 121.869 147.771 123.612 149.244C125.499 146.283 128.246 137.341 129.833 134.197V134.194Z" fill="#2186C4"/>
<path d="M114.235 151.923L117.04 145.988L121.701 148.512L118.655 153.844L114.235 151.923Z" fill="#FF9985"/>
<path d="M105.788 156.342C106.019 156.834 106.636 157.036 107.158 156.791L111.879 154.575C112.403 154.33 112.641 153.726 112.41 153.234C112.179 152.741 111.562 152.539 111.04 152.784L106.319 155C105.795 155.245 105.557 155.849 105.788 156.342Z" fill="#FF9985"/>
<path d="M117.107 160.408C116.53 161.043 115.884 161.631 115.208 161.812C114.687 161.951 114.196 161.836 113.732 161.692C112.538 161.319 111.41 160.761 110.379 160.028C109.432 159.355 108.492 158.302 108.699 156.709C108.898 155.168 109.841 153.819 110.963 152.93C113.088 151.242 113.862 150.661 116.081 150.459C118.86 150.206 120.54 151.584 119.326 155.228C118.701 157.103 118.36 159.028 117.107 160.408Z" fill="#FF9985"/>
<path d="M110.374 157.156L108.115 164.29C107.961 164.773 107.439 165.047 106.956 164.898C106.471 164.749 106.202 164.23 106.353 163.747L108.613 156.612C108.766 156.129 109.288 155.855 109.771 156.007C110.257 156.156 110.526 156.675 110.374 157.158V157.156Z" fill="#FF9985"/>
<path d="M112.535 158.601L110.276 165.735C110.122 166.218 109.6 166.492 109.117 166.343C108.631 166.194 108.362 165.675 108.514 165.192L110.773 158.058C110.927 157.574 111.449 157.3 111.932 157.452C112.417 157.601 112.689 158.12 112.535 158.603V158.601Z" fill="#FF9985"/>
<path d="M115.249 158.445L112.989 165.579C112.836 166.062 112.314 166.336 111.831 166.187C111.345 166.038 111.076 165.519 111.227 165.036L113.487 157.901C113.641 157.418 114.162 157.144 114.646 157.296C115.131 157.445 115.4 157.964 115.249 158.447V158.445Z" fill="#FF9985"/>
<path d="M118.119 157.279L115.86 164.413C115.706 164.897 115.184 165.171 114.701 165.019C114.215 164.87 113.946 164.351 114.098 163.868L116.357 156.733C116.511 156.25 117.033 155.976 117.516 156.128C118.001 156.277 118.273 156.796 118.119 157.279Z" fill="#FF9985"/>
<path d="M117.508 62.4438L103.92 67.2874L103.141 65.9605L102.244 66.4797L102.141 73.1983L121.217 100.878C122.424 102.935 122.744 105.387 122.102 107.671L112.134 143.201C111.557 145.235 110.528 147.066 112.343 148.172C112.343 148.172 122.684 149.528 122.866 149.619C123.374 149.871 124.085 149.189 124.383 148.076L137.628 104.572C138.253 102.782 138.647 100.794 137.32 98.3682L124.917 76.4698L117.506 62.4414L117.508 62.4438Z" fill="#2186C4"/>
<path d="M97.9298 86.8047H107.841C108.583 86.8047 109.184 86.2031 109.184 85.461V80.7592C109.184 80.0171 108.583 79.4155 107.841 79.4155H97.9298C97.1877 79.4155 96.5861 80.0171 96.5861 80.7592V85.461C96.5861 86.2031 97.1877 86.8047 97.9298 86.8047Z" fill="white"/>
<path d="M102.865 80.1291C102.504 80.1291 102.211 79.8334 102.211 79.4705V77.7758C102.211 77.4128 102.504 77.1172 102.865 77.1172C103.225 77.1172 103.519 77.4104 103.519 77.7758V79.4705C103.519 79.8334 103.225 80.1291 102.865 80.1291Z" fill="#4DB4E8"/>
<path d="M97.4083 95.6227L96.1992 95.1276C103.788 76.3108 95.2401 57.6143 93.5358 54.2106C93.3796 53.8981 93.4997 53.5255 93.8026 53.3548C94.1295 53.1721 94.5382 53.2923 94.7064 53.6264C96.5069 57.2321 105.18 76.3589 97.4083 95.6227Z" fill="#000543"/>
<path d="M93.8987 97.008C94.1511 98.8132 95.8096 100.073 97.6028 99.818C99.3961 99.5632 100.644 97.8926 100.391 96.0849C100.139 94.2797 98.4802 93.0201 96.687 93.2749C94.8938 93.5297 93.6463 95.2004 93.8987 97.008Z" fill="#000543"/>
<path d="M62.3516 170.332C58.8685 170.332 55.9864 168.027 55.9215 165.193L55.27 88.6184C55.27 88.4044 55.4407 88.229 55.6546 88.2266C55.871 88.2602 56.044 88.3972 56.0464 88.6112L56.6979 165.181C56.7532 167.594 59.2867 169.558 62.3516 169.558C62.5751 169.558 62.7506 169.731 62.7506 169.945C62.7506 170.159 62.5559 170.342 62.3516 170.335V170.332Z" fill="#4DB4E8"/>
</g>
</svg>
