<svg width="80" height="80" viewBox="0 0 80 80" fill="none" xmlns="http://www.w3.org/2000/svg">
<g clip-path="url(#clip0_1130_93856)">
<path fill-rule="evenodd" clip-rule="evenodd" d="M75.9577 53.3063C73.534 63.4589 62.4344 68.1333 52.6998 71.7177C44.0904 74.8879 35.0225 75.0609 26.6024 71.4797C17.208 67.4841 7.96527 61.4843 5.30124 51.5583C2.46079 40.9749 6.04189 29.6087 13.1174 21.2351C20.1249 12.9419 30.6516 7.71447 41.3692 8.87315C51.2457 9.94091 57.3302 18.8125 63.4521 26.6768C69.7771 34.802 78.3622 43.2339 75.9577 53.3063Z" fill="#D1E3F4"/>
<path fill-rule="evenodd" clip-rule="evenodd" d="M56.0543 34.4036C57.6968 34.4036 59.3012 33.957 60.6576 33.1223C62.0349 33.9555 63.6604 34.3922 65.319 34.3749L70.5877 32.6469C72.0724 31.5437 73.0916 30.0144 73.4749 28.3151C73.8581 26.6157 73.582 24.8493 72.6929 23.3113C71.8038 21.7734 70.3555 20.5573 68.5907 19.8667C68.1876 18.2215 67.1726 16.7499 65.7138 15.6962L60.5708 14.074H59.9918C58.8478 12.5696 57.1304 11.4965 55.166 11.0587L44.1397 10.5C42.3068 10.6373 40.5785 11.3263 39.2329 12.4561C38.5971 12.321 37.9463 12.251 37.2931 12.2474C35.7114 12.2503 34.1644 12.6658 32.839 13.4437C31.5135 14.2216 30.4662 15.3286 29.8234 16.6312L25.6339 19.306C24.5914 20.579 24.0302 22.1203 24.0329 23.7025C24.0226 24.3642 24.1202 25.0235 24.3224 25.6596C23.2233 26.9451 22.6322 28.5248 22.6432 30.1477C22.6406 32.0299 23.4384 33.8416 24.8725 35.2099C24.9883 36.5575 25.5107 37.8509 26.3834 38.9501C27.256 40.0493 28.4456 40.9126 29.8234 41.4462C31.411 42.3433 32.7552 43.5497 33.7572 44.9766C34.7594 46.4036 35.3938 48.0149 35.6139 49.6919H46.431V41.8637C46.429 40.4738 46.8593 39.1113 47.673 37.9305C48.4866 36.7498 49.6511 35.7983 51.0345 35.1837C51.8124 34.9155 52.0038 34.5544 52.2382 34.112C52.3945 33.8172 52.57 33.4861 52.9508 33.1223C53.2817 33.3259 53.5382 33.5065 53.7604 33.6631C54.4498 34.1483 54.8123 34.4036 56.0543 34.4036ZM62.3551 30.8219C63.1104 31.2305 63.9814 31.4766 64.8916 31.5249L69.2199 30.1052C70.0103 29.4175 70.5122 28.5646 70.7108 27.6836C70.934 26.6945 70.7801 25.6554 70.2399 24.7211C69.6947 23.7778 68.7679 22.9703 67.5582 22.497L66.1886 21.9611L65.8386 20.5325C65.6337 19.6957 65.1418 18.8872 64.3769 18.2371L60.1346 16.8989H58.5869L57.7364 15.7806C57.0624 14.8942 56.0227 14.195 54.7609 13.8668L44.1906 13.3313C42.984 13.453 41.8871 13.9189 41.0549 14.6177L39.9962 15.5066L38.644 15.2193C38.201 15.1252 37.746 15.0757 37.288 15.0725C36.197 15.0763 35.1494 15.3647 34.273 15.879C33.3956 16.3939 32.7476 17.0997 32.3642 17.8766L32.0145 18.5856L27.5866 21.4126C27.1028 22.1218 26.8649 22.9103 26.8663 23.6893L26.8663 23.7138L26.8659 23.7385C26.8604 24.0911 26.9122 24.4457 27.0225 24.7926L27.5002 26.2946L26.4759 27.4926C25.7994 28.2838 25.4703 29.2098 25.4765 30.1203L25.4765 30.1317L25.4765 30.1434C25.4751 31.2047 25.9222 32.2871 26.8284 33.1516L27.6038 33.8914L27.6955 34.9592C27.7617 35.7303 28.0622 36.4997 28.6024 37.1801C29.1451 37.8638 29.913 38.4341 30.847 38.7959L31.0384 38.8702L31.2173 38.9712C31.4244 39.0882 31.6284 39.2097 31.8292 39.3357L31.8204 39.3422C35.6719 41.692 37.3061 45.1119 37.8609 46.8606H38.7279V36.528L35.6066 33.7534L33.4879 35.8722C32.9347 36.4254 32.0377 36.4254 31.4845 35.8722C30.9313 35.319 30.9313 34.422 31.4845 33.8688L34.0229 31.3302L33.2613 27.1413L29.8104 25.4159C29.1106 25.066 28.827 24.215 29.1769 23.5152C29.5268 22.8155 30.3778 22.5317 31.0776 22.8817L34.4447 24.5654L38.5692 21.9407L37.2864 18.5196C37.0116 17.787 37.3829 16.9705 38.1155 16.6956C38.848 16.421 39.6646 16.7921 39.9393 17.5247L41.3178 21.2008H42.8429L43.5713 19.7437L42.4163 17.0485C42.1081 16.3294 42.4413 15.4966 43.1604 15.1884C43.8795 14.8802 44.7123 15.2133 45.0206 15.9324L46.0152 18.2533L49.9649 18.9714L49.9812 18.9582L52.5339 16.9159C53.1449 16.4272 54.0364 16.5262 54.5251 17.1372C55.0139 17.7481 54.9149 18.6396 54.3039 19.1283L52.5975 20.4936L54.4889 22.9254L55.2152 21.4731C55.455 20.9931 55.9456 20.6899 56.4823 20.6899H59.5455C60.328 20.6899 60.9622 21.3242 60.9622 22.1066C60.9622 22.889 60.328 23.5233 59.5455 23.5233H57.3578L56.978 24.2829L59.3424 24.8083C59.4554 24.8335 59.5649 24.8724 59.6686 24.9242L61.7108 25.9453C62.4106 26.2951 62.6942 27.1461 62.3444 27.8459C61.9945 28.5458 61.1435 28.8294 60.4437 28.4795L58.5575 27.5364L54.1327 26.5531C53.811 26.4816 53.5241 26.3001 53.3218 26.04L50.0802 21.8721L46.1514 21.1579C46.0944 21.2048 46.0332 21.2475 45.9682 21.2858L45.1351 22.9518V23.7532H46.7818C47.0017 23.7532 47.2185 23.8045 47.4153 23.9028L51.4997 25.9451C52.1995 26.295 52.4832 27.1458 52.1332 27.8457C51.7833 28.5455 50.9323 28.8291 50.2326 28.4792L46.4473 26.5865H45.1351V28.7441C45.1351 29.5264 44.5008 30.1608 43.7184 30.1608C42.936 30.1608 42.3017 29.5264 42.3017 28.7441V25.1808V25.1699V25.1591V24.0341H40.5571L36.0926 26.8751L36.8559 31.0733L41.0858 34.8329C41.3881 35.1018 41.5612 35.4872 41.5612 35.8918V46.8606H43.5978V41.8088C43.5978 37.9812 45.7359 35.6319 46.9036 34.5197C47.8376 33.6299 49.2407 32.8798 49.8255 32.616C49.9417 32.3559 50.3379 31.6809 50.9931 31.0611C51.6483 30.4413 52.3286 29.7957 52.5869 29.5503C54.3406 30.5526 55.7024 31.559 55.7024 31.559C55.7024 31.559 57.5174 31.4594 58.3421 31.1275C59.0017 30.8619 60.1516 30.1239 60.6441 29.7882L62.3551 30.8219Z" fill="#2554C3"/>
<path d="M35.3931 55.8333H46.7264V53H35.3931V55.8333Z" fill="#2554C3"/>
<path d="M46.7264 61.5013H35.3931V58.668H46.7264V61.5013Z" fill="#2554C3"/>
</g>
<defs>
<clipPath id="clip0_1130_93856">
<rect width="80" height="80" fill="white"/>
</clipPath>
</defs>
</svg>
