<svg width="24" height="24" viewBox="0 0 24 24" fill="none" xmlns="http://www.w3.org/2000/svg">
  <g id="new window">
    <g id="Vector">
      <path fill-rule="evenodd" clip-rule="evenodd" d="M18.6364 18.9991C18.9981 18.9991 19.3449 18.8555 19.6006 18.5998C19.8563 18.344 20 17.9972 20 17.6356V5.36356C20 5.00192 19.8563 4.65509 19.6006 4.39938C19.3449 4.14366 18.9981 4 18.6364 4H6.36442C6.00278 4 5.65595 4.14366 5.40024 4.39938C5.14452 4.65509 5.00086 5.00192 5.00086 5.36356V10.136C5.00086 10.3168 5.07269 10.4902 5.20055 10.6181C5.32841 10.746 5.50182 10.8178 5.68264 10.8178C5.86346 10.8178 6.03687 10.746 6.16473 10.6181C6.29259 10.4902 6.36442 10.3168 6.36442 10.136V5.36356H18.6364V17.6356H13.864C13.6832 17.6356 13.5098 17.7074 13.3819 17.8353C13.254 17.9631 13.1822 18.1365 13.1822 18.3174C13.1822 18.4982 13.254 18.6716 13.3819 18.7995C13.5098 18.9273 13.6832 18.9991 13.864 18.9991H18.6364ZM14.5458 10.136V14.2267C14.5458 14.4075 14.4739 14.5809 14.3461 14.7088C14.2182 14.8366 14.0448 14.9085 13.864 14.9085C13.6832 14.9085 13.5098 14.8366 13.3819 14.7088C13.254 14.5809 13.1822 14.4075 13.1822 14.2267V11.7818L6.16534 18.8001C6.10195 18.8634 6.0267 18.9137 5.94388 18.948C5.86105 18.9823 5.77229 19 5.68264 19C5.59299 19 5.50423 18.9823 5.42141 18.948C5.33858 18.9137 5.26333 18.8634 5.19994 18.8001C5.13655 18.7367 5.08627 18.6614 5.05196 18.5786C5.01766 18.4958 5 18.407 5 18.3174C5 18.2277 5.01766 18.1389 5.05196 18.0561C5.08627 17.9733 5.13655 17.898 5.19994 17.8347L12.2182 10.8178H9.77331C9.5925 10.8178 9.41908 10.746 9.29122 10.6181C9.16337 10.4902 9.09154 10.3168 9.09154 10.136C9.09154 9.95519 9.16337 9.78178 9.29122 9.65392C9.41908 9.52606 9.5925 9.45423 9.77331 9.45423H13.864C13.9533 9.45387 14.0418 9.47113 14.1244 9.50501C14.207 9.53889 14.2821 9.58873 14.3454 9.65167C14.4088 9.71462 14.4591 9.78944 14.4934 9.87185C14.5278 9.95425 14.5456 10.0426 14.5458 10.1319" fill="#FFFFFF"/>
      <path d="M14.5458 10.136V14.2267C14.5458 14.4075 14.4739 14.5809 14.3461 14.7088C14.2182 14.8366 14.0448 14.9085 13.864 14.9085C13.6832 14.9085 13.5098 14.8366 13.3819 14.7088C13.254 14.5809 13.1822 14.4075 13.1822 14.2267V11.7818L6.16534 18.8001C6.10195 18.8634 6.0267 18.9137 5.94388 18.948C5.86105 18.9823 5.77229 19 5.68264 19C5.59299 19 5.50423 18.9823 5.42141 18.948C5.33858 18.9137 5.26333 18.8634 5.19994 18.8001C5.13655 18.7367 5.08627 18.6614 5.05196 18.5786C5.01766 18.4958 5 18.407 5 18.3174C5 18.2277 5.01766 18.1389 5.05196 18.0561C5.08627 17.9733 5.13655 17.898 5.19994 17.8347L12.2182 10.8178H9.77331C9.5925 10.8178 9.41908 10.746 9.29122 10.6181C9.16337 10.4902 9.09154 10.3168 9.09154 10.136C9.09154 9.95519 9.16337 9.78178 9.29122 9.65392C9.41908 9.52606 9.5925 9.45423 9.77331 9.45423H13.864C13.9533 9.45387 14.0418 9.47113 14.1244 9.50501C14.207 9.53889 14.2821 9.58873 14.3454 9.65167C14.4088 9.71462 14.4591 9.78944 14.4934 9.87185C14.5278 9.95425 14.5456 10.0426 14.5458 10.1319M18.6364 18.9991C18.9981 18.9991 19.3449 18.8555 19.6006 18.5998C19.8563 18.344 20 17.9972 20 17.6356V5.36356C20 5.00192 19.8563 4.65509 19.6006 4.39938C19.3449 4.14366 18.9981 4 18.6364 4H6.36442C6.00278 4 5.65595 4.14366 5.40024 4.39938C5.14452 4.65509 5.00086 5.00192 5.00086 5.36356V10.136C5.00086 10.3168 5.07269 10.4902 5.20055 10.6181C5.32841 10.746 5.50182 10.8178 5.68264 10.8178C5.86346 10.8178 6.03687 10.746 6.16473 10.6181C6.29259 10.4902 6.36442 10.3168 6.36442 10.136V5.36356H18.6364V17.6356H13.864C13.6832 17.6356 13.5098 17.7074 13.3819 17.8353C13.254 17.9631 13.1822 18.1365 13.1822 18.3174C13.1822 18.4982 13.254 18.6716 13.3819 18.7995C13.5098 18.9273 13.6832 18.9991 13.864 18.9991H18.6364Z" stroke="#FFFFFF" stroke-width="0.3"/>
    </g>
  </g>
</svg>
