<svg width="81" height="80" viewBox="0 0 81 80" fill="none" xmlns="http://www.w3.org/2000/svg">
<g clip-path="url(#clip0_1130_93868)">
<path fill-rule="evenodd" clip-rule="evenodd" d="M54.0757 8.42783C62.6856 11.6203 68.87 18.7722 72.1921 27.3329C75.8694 36.8087 78.2211 47.8055 72.658 56.3122C67.0227 64.9292 55.855 66.3411 45.6748 67.8812C33.9836 69.6499 20.4873 73.7599 12.044 65.482C3.41429 57.0213 4.77778 42.7909 8.28784 31.2265C11.1925 21.6566 19.5837 15.6033 28.5363 11.1457C36.5993 7.13096 45.6304 5.29637 54.0757 8.42783Z" fill="#D1E3F4"/>
<g clip-path="url(#clip1_1130_93868)">
<path fill-rule="evenodd" clip-rule="evenodd" d="M25.2832 58.7979C24.5843 58.7325 24.0699 58.1036 24.1342 57.3932L25.1542 46.1344L30.2947 48.8984L31.4773 41.6736C31.5926 40.9699 32.2472 40.4943 32.9396 40.6115C33.6319 40.7285 34.0997 41.3938 33.9846 42.0975L32.2232 52.8579L27.3356 50.2299L26.6652 57.6301C26.6009 58.3405 25.9821 58.8634 25.2832 58.7979Z" fill="#2554C3"/>
<path fill-rule="evenodd" clip-rule="evenodd" d="M7.48165 41.4323C7.13926 40.8096 7.35838 40.0226 7.97106 39.6746L18.0648 33.9414L18.762 40.086L25.6792 36.8057C26.3152 36.5041 27.0714 36.7837 27.3682 37.4301C27.665 38.0765 27.3898 38.8452 26.7539 39.1468L16.6411 43.9424L15.9767 38.0868L9.21096 41.9297C8.59828 42.2777 7.82404 42.055 7.48165 41.4323Z" fill="#2554C3"/>
<path fill-rule="evenodd" clip-rule="evenodd" d="M13.389 15.3365C13.7531 14.7267 14.5348 14.5324 15.1347 14.9025L25.2591 21.148L20.2045 24.8981L26.6453 29.5572C27.2172 29.971 27.3507 30.7775 26.9438 31.3586C26.5369 31.9398 25.7434 32.0756 25.1715 31.662L15.8577 24.9244L20.6813 21.346L13.816 17.1109C13.216 16.7408 13.0248 15.9463 13.389 15.3365Z" fill="#2554C3"/>
<path fill-rule="evenodd" clip-rule="evenodd" d="M41.2228 9.89484C41.9139 10.0187 42.3754 10.6887 42.2535 11.3912L40.3437 22.399L35.5111 19.2555L33.7754 26.2348C33.6034 26.9263 32.9123 27.3453 32.2319 27.1705C31.5515 26.9957 31.1392 26.2933 31.3113 25.6017L33.9113 15.1476L38.5028 18.1343L39.7505 10.9426C39.8724 10.24 40.5316 9.77096 41.2228 9.89484Z" fill="#2554C3"/>
<path fill-rule="evenodd" clip-rule="evenodd" d="M57.2324 28.0098C57.57 28.6354 57.3448 29.4204 56.7293 29.7635L47.0519 35.1587L46.4369 29.3354L39.9595 32.3441C39.3212 32.6406 38.5672 32.355 38.2754 31.7062C37.9837 31.0574 38.2647 30.291 38.9031 29.9945L48.5878 25.4961L49.1723 31.0302L55.507 27.4986C56.1224 27.1555 56.8949 27.3844 57.2324 28.0098Z" fill="#2554C3"/>
<path fill-rule="evenodd" clip-rule="evenodd" d="M50.6366 51.4212C50.2725 52.031 49.4908 52.2253 48.8908 51.8552L39.3363 45.9612L44.0596 42.4571L38.1472 38.1801C37.5753 37.7664 37.4418 36.9599 37.8487 36.3787C38.2557 35.7975 39.0491 35.6617 39.621 36.0753L48.4064 42.4306L43.9141 45.7634L50.2096 49.6469C50.8095 50.0169 51.0008 50.8113 50.6366 51.4212Z" fill="#2554C3"/>
</g>
</g>
<defs>
<clipPath id="clip0_1130_93868">
<rect width="80" height="80" fill="white" transform="translate(0.666748)"/>
</clipPath>
<clipPath id="clip1_1130_93868">
<rect width="51" height="50" fill="white" transform="translate(6.66675 9)"/>
</clipPath>
</defs>
</svg>
