<svg width="81" height="80" viewBox="0 0 81 80" fill="none" xmlns="http://www.w3.org/2000/svg">
<path fill-rule="evenodd" clip-rule="evenodd" d="M39.6964 3.14827C50.176 2.08262 60.4707 6.87748 67.8005 13.7955C75.0148 20.6045 79.2834 30.029 78.1529 39.4444C77.1114 48.1198 68.9681 53.8167 62.2499 60.0275C55.461 66.3036 49.3572 74.7958 39.6964 74.9961C29.9422 75.1983 22.7515 67.4941 16.0944 60.9845C9.7512 54.7819 3.11058 47.9262 3.33911 39.4444C3.56412 31.0932 11.0513 25.1037 17.2273 18.9381C23.8577 12.3189 29.93 4.14138 39.6964 3.14827Z" fill="#D1E3F4"/>
<path fill-rule="evenodd" clip-rule="evenodd" d="M52.1796 31.25C53.4235 31.25 54.5888 30.9178 55.5886 30.3386L57.0085 32.575H44.1026C44.0396 32.575 43.9777 32.5792 43.9172 32.5874C40.7925 32.721 38.1439 33.9226 36.255 35.89C34.3005 37.9257 33.3579 40.5721 33.3338 43.1384C33.3099 45.7064 34.2056 48.3843 36.1764 50.4504C37.8428 52.1974 40.1032 53.3234 42.7565 53.665V53.7488L42.7564 53.7686V53.7749V67.0249C42.7564 69.1433 44.4442 70.8894 46.5937 70.995C48.7431 71.1005 50.599 69.5284 50.8132 67.4204L51.7958 57.7499H52.5631L53.5456 67.4204C53.7598 69.5284 55.6157 71.1005 57.7651 70.995C59.9147 70.8894 61.6025 69.1433 61.6025 67.0249V56.4428L61.6026 56.4249V40.525H64.2949C65.763 40.525 67.1154 39.7408 67.8271 38.4769C68.5388 37.213 68.4976 35.6686 67.7195 34.4432L60.9888 23.8432C60.381 22.8861 59.4271 22.2714 58.3865 22.0583C57.3676 19.6741 54.9723 18 52.1796 18C48.4623 18 45.4488 20.9661 45.4488 24.625C45.4488 28.2838 48.4623 31.25 52.1796 31.25ZM52.1796 28.6C52.8993 28.6 53.5752 28.4146 54.1606 28.0897L54.1396 28.0567C52.9575 26.1951 53.5324 23.7427 55.4238 22.5792C55.4767 22.5467 55.53 22.5155 55.5838 22.4856C54.8663 21.3818 53.6097 20.65 52.1796 20.65C49.9491 20.65 48.1411 22.4297 48.1411 24.625C48.1411 26.8204 49.9491 28.6 52.1796 28.6ZM58.7057 25.2477C58.3117 24.6272 57.4811 24.4385 56.8507 24.8264C56.2203 25.2142 56.0286 26.0317 56.4226 26.6522L60.5789 33.1977C60.8383 33.6061 60.852 34.121 60.6147 34.5422C60.3775 34.9635 59.9267 35.225 59.4373 35.225H44.2359C44.2064 35.2277 44.1768 35.2297 44.1468 35.2307C41.6255 35.3121 39.6119 36.2518 38.2118 37.7101C36.7656 39.2164 36.0445 41.2026 36.0261 43.1628C36.0078 45.1238 36.6928 47.1203 38.1391 48.6366C39.5399 50.1049 41.5743 51.0395 44.1452 51.1194C44.2484 51.1225 44.3487 51.1371 44.4447 51.1619C44.8399 51.1646 45.2193 51.1714 45.5774 51.1783L45.6794 51.1802C46.1041 51.1884 46.4941 51.1958 46.8605 51.1965C47.6691 51.1979 48.2543 51.164 48.6849 51.068C49.0963 50.9763 49.23 50.8577 49.2879 50.7845C49.3532 50.7023 49.4873 50.4668 49.4873 49.8357C49.4873 49.2709 49.3444 49.0561 49.2591 48.9637C49.1538 48.8498 48.9352 48.7083 48.4515 48.6076C47.9653 48.5063 47.3462 48.4735 46.5766 48.4749C46.2111 48.4756 45.8319 48.4837 45.4301 48.4922L45.387 48.4931C44.9743 48.5018 44.5397 48.5107 44.1026 48.5107C43.9422 48.5107 43.7882 48.483 43.6454 48.4323C42.0224 48.266 40.8711 47.6289 40.1019 46.8227C39.1798 45.8559 38.7057 44.5406 38.7183 43.1871C38.731 41.8333 39.2305 40.5073 40.1685 39.5303C41.0076 38.6564 42.265 37.9913 44.023 37.8887C44.3931 37.8671 44.7561 37.9969 45.026 38.2472C45.2957 38.4976 45.4488 38.8464 45.4488 39.2115V45.8411C45.8213 45.8333 46.201 45.8256 46.5716 45.8249C47.3795 45.8235 48.2328 45.8534 49.0086 46.0149C49.7869 46.1769 50.6199 46.4979 51.2509 47.1807C51.9017 47.8852 52.1796 48.8013 52.1796 49.8357C52.1796 50.8039 51.9771 51.6995 51.4113 52.4138C50.8383 53.1373 50.0464 53.4816 49.2799 53.6525C48.5327 53.819 47.6876 53.8479 46.8557 53.8465C46.4642 53.8457 46.0511 53.8379 45.6321 53.8298L45.4487 53.8263V67.0249C45.4487 67.731 46.0112 68.3131 46.7278 68.3483C47.4443 68.3834 48.0629 67.8594 48.1342 67.1567L49.2379 56.2931C49.3069 55.6157 49.8859 55.0999 50.5775 55.0999H53.7813C54.473 55.0999 55.052 55.6157 55.1209 56.2931L56.2246 67.1567C56.296 67.8594 56.9146 68.3834 57.6311 68.3483C58.3476 68.3131 58.9102 67.731 58.9102 67.0249V56.4249L58.9103 56.4069V39.2C58.9103 38.4682 59.513 37.875 60.2565 37.875H64.2949C64.7843 37.875 65.2351 37.6135 65.4723 37.1923C65.7096 36.771 65.6959 36.2562 65.4365 35.8477L58.7057 25.2477ZM42.7565 40.8854C42.4834 41.0249 42.2797 41.1897 42.1253 41.3504C41.6934 41.8003 41.4175 42.4669 41.4105 43.2115C41.4035 43.9539 41.6644 44.5891 42.0647 45.0087C42.2201 45.1716 42.44 45.3489 42.7565 45.4965V40.8854Z" fill="#2554C3"/>
</svg>
